<?xml version="1.0" encoding="iso-8859-1"?>
<!-- Generator: Adobe Illustrator 17.1.0, SVG Export Plug-In . SVG Version: 6.00 Build 0)  -->
<!DOCTYPE svg PUBLIC "-//W3C//DTD SVG 1.1//EN" "http://www.w3.org/Graphics/SVG/1.1/DTD/svg11.dtd">
<svg version="1.1" id="Capa_1" xmlns="http://www.w3.org/2000/svg" xmlns:xlink="http://www.w3.org/1999/xlink" x="0px" y="0px"
	 viewBox="0 0 400.758 400.758" style="enable-background:new 0 0 400.758 400.758;" xml:space="preserve">
<path d="M202.868,127.809c0-5.428-0.48-10.574-1.432-15.397c-14.594,7.293-30.468,9.68-46.519,6.901
	c-18.279-3.163-35.021-12.855-47.14-27.291c-3.196-3.808-2.701-9.484,1.106-12.681c3.807-3.194,9.484-2.7,12.68,1.106
	c17.55,20.907,50.633,31.38,79.971,11.02c0.339-0.247,0.699-0.473,1.078-0.674c0.935-0.498,1.927-0.816,2.932-0.962
	c1.348-0.199,2.697-0.081,3.957,0.31c1.229,0.38,2.384,1.023,3.37,1.915c0.756,0.681,1.404,1.498,1.903,2.434
	c0.211,0.392,0.39,0.795,0.537,1.204c3.688,9.607,5.557,20.411,5.557,32.115c0,28.227-14.601,54.27-38.104,67.968
	c-9.84,5.735-17.825,8.299-25.891,8.313c-0.005,0-0.01,0-0.015,0h0h-0.001h0c-0.005,0-0.01,0-0.015,0
	c-8.067-0.015-16.053-2.578-25.893-8.313c-23.503-13.698-38.104-39.741-38.104-67.968c0-4.971,4.029-9,9-9s9,4.029,9,9
	c0,21.847,11.176,41.931,29.167,52.417c6.937,4.043,12.133,5.852,16.846,5.864c4.711-0.013,9.907-1.821,16.844-5.864
	C191.691,169.739,202.868,149.655,202.868,127.809z M233.695,280.414c0.964,0.329,1.946,0.486,2.911,0.486
	c3.743,0,7.238-2.354,8.516-6.092c1.608-4.704-0.902-9.82-5.605-11.428c-27.156-9.281-45.197-21.149-50.8-33.419
	c-2.065-4.521-7.404-6.517-11.926-4.448c-4.521,2.064-6.513,7.403-4.448,11.925C182.185,258.991,211.139,272.705,233.695,280.414z
	 M75.229,183.596c4.125,2.771,9.718,1.674,12.49-2.452s1.674-9.718-2.452-12.489c-11.01-7.396-15.418-22.117-17.177-33.165
	c-4.479-28.132,3.279-64.584,17.663-82.986C102.896,30.576,128.549,18,156.133,18c49.244,0,89.307,40.063,89.307,89.306v44.77
	h-3.208c-4.971,0-9,4.029-9,9s4.029,9,9,9h3.735c1.563,24.571,22.05,44.084,47.01,44.084c4.971,0,9-4.029,9-9s-4.029-9-9-9
	c-15.029,0-27.434-11.45-28.95-26.084c4.935-0.043,8.921-4.056,8.921-9c0-4.971-4.029-9-9-9h-0.507v-44.77
	C263.439,48.137,215.302,0,156.133,0c-33.161,0-63.982,15.096-84.561,41.417c-17.375,22.229-26.515,63.889-21.258,96.903
	C53.643,159.226,62.258,174.882,75.229,183.596z M154.59,371.997h-20.994l-68.625-85.956c25.28-6.607,67.801-21.452,80.202-48.602
	c2.065-4.521,0.074-9.86-4.447-11.926c-4.519-2.064-9.86-0.073-11.926,4.447c-9.323,20.41-49.745,35.24-81.535,41.739
	c-0.267,0.054-0.531,0.12-0.794,0.198c-1.708,0.509-3.168,1.493-4.262,2.775c-0.63,0.734-1.125,1.553-1.481,2.42
	c-0.521,1.263-0.76,2.655-0.654,4.083c0.091,1.263,0.448,2.516,1.082,3.67c0.268,0.489,0.58,0.949,0.928,1.374l80.15,100.393
	c1.017,1.274,2.311,2.199,3.726,2.757c0.693,0.274,1.428,0.464,2.193,0.559c0.371,0.046,0.745,0.069,1.12,0.069
	c0.051,0,0.101,0,0.152-0.001h25.167c4.971,0,9-4.029,9-9S159.561,371.997,154.59,371.997z M339.402,321.647
	c-7.899,7.898-17.342,13.739-27.553,17.287c-2.64,17.545-11.507,32.896-24.165,43.914c4.356,0.628,7.704,4.377,7.704,8.907
	c0,4.971-4.029,9-9,9h-45.933c-0.176,0.001-0.351,0.002-0.527,0.002s-0.354-0.001-0.53-0.002h-45.927c-4.971,0-9-4.029-9-9
	c0-4.532,3.35-8.281,7.708-8.908c-15.302-13.344-24.987-32.976-24.987-54.825c0-7.255,1.069-14.424,3.176-21.306
	c1.158-3.782,4.65-6.365,8.605-6.365h88.761c3.318-11.825,9.634-22.789,18.609-31.764c17.27-17.27,41.897-24.694,65.873-19.857
	c3.551,0.716,6.327,3.492,7.043,7.043C364.096,279.751,356.672,304.376,339.402,321.647z M292.647,342.808
	c-6.317,0.4-12.74-0.016-19.117-1.302c-3.552-0.716-6.328-3.492-7.044-7.043c-1.082-5.369-1.55-10.768-1.431-16.111h-79.01
	c-0.566,3.177-0.852,6.411-0.852,9.671c0,30.028,24.305,54.486,54.276,54.733h0.917
	C264.993,382.552,286.187,365.915,292.647,342.808z M342.501,265.489c-16.034-1.389-31.908,4.307-43.429,15.827
	c-11.521,11.52-17.218,27.396-15.827,43.431c16.028,1.386,31.907-4.308,43.428-15.828
	C338.195,297.397,343.892,281.521,342.501,265.489z"/>
<g>
</g>
<g>
</g>
<g>
</g>
<g>
</g>
<g>
</g>
<g>
</g>
<g>
</g>
<g>
</g>
<g>
</g>
<g>
</g>
<g>
</g>
<g>
</g>
<g>
</g>
<g>
</g>
<g>
</g>
</svg>
