<?xml version="1.0" encoding="utf-8"?>
<!-- Generator: Adobe Illustrator 19.0.0, SVG Export Plug-In . SVG Version: 6.00 Build 0)  -->
<svg version="1.1" id="Capa_1" xmlns="http://www.w3.org/2000/svg" xmlns:xlink="http://www.w3.org/1999/xlink" x="0px" y="0px"
	 viewBox="-49 141 512 512" style="enable-background:new -49 141 512 512;" xml:space="preserve">
<path d="M252,653h-90v-45c0-52.8-39.2-96.6-90-103.9v43.7L-49,458l121-89.8v45.4c32.1,2.5,62.9,13,90,30.4V255h-46.2L207,141
	l91.2,114H252V324c27.1-17.4,57.9-27.9,90-30.4v-45.4L463,338l-121,89.8v-43.7c-50.8,7.3-90,51.1-90,103.9V653z M192,623h30V488
	c0-74.4,60.6-135,135-135h15v15.2l40.7-30.2L372,307.8V323h-15c-80.6,0-121.1,55.3-135,64.8V225h13.8L207,189l-28.8,36H192v282.8
	l-25-22.5C136.5,458,97.5,443,57,443H42v-15.2L1.3,458L42,488.2V473h15c74.4,0,135,60.6,135,135L192,623z"/>
</svg>
