<svg id="Layer_1" height="512" viewBox="0 0 128 128" width="512" xmlns="http://www.w3.org/2000/svg" data-name="Layer 1"><path d="m55.854 90a39.514 39.514 0 0 1 -17.854-17.854 19.818 19.818 0 0 0 -14.7-10.9 19.826 19.826 0 0 0 -17.428 5.6 20.026 20.026 0 0 0 -3.8 23.031 79.8 79.8 0 0 0 36.056 36.056 20.034 20.034 0 0 0 17.726-35.933zm2.826 29.657a16.527 16.527 0 0 1 -19.007 3.136 76.285 76.285 0 0 1 -34.466-34.466 16.529 16.529 0 0 1 3.136-19.008 16.534 16.534 0 0 1 26.518 4.381 43.033 43.033 0 0 0 19.444 19.439 16.534 16.534 0 0 1 4.375 26.519z"/><path d="m42.963 92.814a8.1 8.1 0 0 1 -7.777-7.777 1.75 1.75 0 0 0 -3.5.154 11.581 11.581 0 0 0 11.12 11.119h.079a1.75 1.75 0 0 0 .076-3.5z"/><path d="m121.008 56.4a16.566 16.566 0 0 0 -15.139-2.249 32.081 32.081 0 0 1 -20.514 0 16.751 16.751 0 0 0 -22.13 15.86 16.742 16.742 0 0 0 11.375 15.862 65.794 65.794 0 0 0 42.035 0 16.743 16.743 0 0 0 11.365-15.862 16.567 16.567 0 0 0 -6.992-13.611zm-5.5 26.162a62.275 62.275 0 0 1 -39.787 0 13.244 13.244 0 0 1 -8.994-12.548 13.282 13.282 0 0 1 13.206-13.269 13.364 13.364 0 0 1 4.3.717 35.629 35.629 0 0 0 22.762 0 13.251 13.251 0 0 1 17.505 12.549 13.244 13.244 0 0 1 -8.994 12.548z"/><path d="m99.912 63.164a6.331 6.331 0 0 1 -8.6 0 1.75 1.75 0 1 0 -2.364 2.58 9.812 9.812 0 0 0 13.326 0 1.75 1.75 0 1 0 -2.364-2.58z"/><path d="m48.43 55.619a16.723 16.723 0 0 0 7.41-1.731 65.779 65.779 0 0 0 29.724-29.723 16.744 16.744 0 0 0 -3.177-19.256 16.75 16.75 0 0 0 -26.865 4.432 32.1 32.1 0 0 1 -14.505 14.5 16.751 16.751 0 0 0 -4.432 26.865 16.737 16.737 0 0 0 11.845 4.913zm-13.075-18.908a13.106 13.106 0 0 1 7.21-9.727 35.621 35.621 0 0 0 16.1-16.095 13.106 13.106 0 0 1 9.726-7.21 13.525 13.525 0 0 1 2.209-.179 13.083 13.083 0 0 1 9.312 3.887 13.246 13.246 0 0 1 2.513 15.232 62.26 62.26 0 0 1 -28.133 28.13 13.246 13.246 0 0 1 -15.232-2.513 13.106 13.106 0 0 1 -3.705-11.525z"/><path d="m51.68 29.507h.078a9.812 9.812 0 0 0 9.423-9.423 1.75 1.75 0 0 0 -3.5-.154 6.331 6.331 0 0 1 -6.08 6.081 1.75 1.75 0 0 0 .075 3.5z"/></svg>