<?xml version="1.0" encoding="iso-8859-1"?>
<!-- Generator: Adobe Illustrator 18.0.0, SVG Export Plug-In . SVG Version: 6.00 Build 0)  -->
<!DOCTYPE svg PUBLIC "-//W3C//DTD SVG 1.1//EN" "http://www.w3.org/Graphics/SVG/1.1/DTD/svg11.dtd">
<svg version="1.1" id="Capa_1" xmlns="http://www.w3.org/2000/svg" xmlns:xlink="http://www.w3.org/1999/xlink" x="0px" y="0px"
	 viewBox="0 0 347.081 347.081" style="enable-background:new 0 0 347.081 347.081;" xml:space="preserve">
<g>
	<g>
		<g>
			<path d="M347.081,148.515c0-23.19-18.764-42.079-41.906-42.283c-3.269-11.465-13.838-19.883-26.338-19.883
				c-0.459,0-0.918,0.012-1.376,0.035c-1.32-32.5-28.173-58.531-60.991-58.531c-3.349,0-6.686,0.275-9.985,0.822
				c-6.251-15.898-21.751-26.798-39.35-26.798c-18.395,0-34.367,11.891-40.059,28.744c-1.39-0.178-2.796-0.267-4.214-0.267
				c-16.494,0-30.202,12.155-32.637,27.979c-19.583,2.673-36.166,16.575-42.112,35.503C19.958,101.037,0,126.409,0,155.918
				c0,22.01,11.311,42.411,29.765,54.134c3.561,19.824,21.118,34.827,41.615,34.827c10.103,0,19.828-3.646,27.436-10.131
				c15.261,16.711,26.455,36.375,33.396,58.767c7.661,24.721,6.984,43.68,6.977,43.854c-0.092,2.045,0.657,4.039,2.072,5.518
				c1.415,1.479,3.373,2.316,5.42,2.316h64.163c3.804,0,7.005-2.847,7.448-6.624c3.951-33.606,15.42-61.506,33.165-80.682
				c1.655-1.789,3.297-3.427,4.901-4.923c7.745,6.457,15.924,9.505,25.308,9.505c21.969,0,39.841-17.872,39.841-39.84
				c0-1.815-0.121-3.616-0.363-5.396c11.648-3.147,20.245-13.808,20.245-26.438c0-5.354-1.551-10.501-4.393-14.883
				C343.475,168.336,347.081,158.686,347.081,148.515z M321.918,181.284c2.842,2.364,4.471,5.836,4.471,9.523
				c0,6.827-5.555,12.381-12.382,12.381c-0.468,0-0.955-0.03-1.448-0.09c-2.642-0.319-5.238,0.78-6.852,2.886
				c-1.612,2.105-1.993,4.906-1.001,7.366c1.194,2.963,1.801,6.089,1.801,9.29c0,13.696-11.144,24.84-24.841,24.84
				c-3.671,0-7.956-0.595-13.052-4.04c5.08-3.223,8.482-4.508,8.654-4.572c3.89-1.377,5.939-5.641,4.577-9.54
				c-1.364-3.91-5.641-5.974-9.552-4.61c-2.314,0.808-55.489,20.313-68.023,105.486h-50.215c-0.434-8.478-2.007-23.122-7.328-40.515
				c-7.633-24.948-24.782-60.563-63.134-88.549c-3.347-2.44-8.037-1.711-10.479,1.638c-2.441,3.346-1.708,8.038,1.638,10.479
				c4.705,3.434,9.145,7.071,13.358,10.876c-4.753,3.688-10.635,5.746-16.73,5.746c-14.096,0-26.036-10.992-27.183-25.025
				c-0.204-2.5-1.646-4.733-3.84-5.949C24.716,190.24,15,173.768,15,155.918c0-23.862,17.033-44.193,40.502-48.342
				c3.019-0.534,5.408-2.851,6.035-5.85C65.03,85.03,79.95,72.904,97.031,72.866l0.266,0.009c2.146,0.059,4.141-0.814,5.589-2.349
				c1.449-1.534,2.185-3.607,2.026-5.712c-0.043-0.573-0.071-1.037-0.071-1.439c0-9.936,8.084-18.02,18.021-18.02
				c2.388,0,4.708,0.46,6.898,1.368c2.161,0.896,4.618,0.732,6.642-0.443c2.023-1.177,3.382-3.229,3.673-5.552
				c1.704-13.597,13.337-23.851,27.061-23.851c13.057,0,24.32,9.291,26.783,22.091c0.4,2.077,1.658,3.89,3.465,4.989
				c1.809,1.101,3.996,1.385,6.023,0.787c4.252-1.255,8.648-1.892,13.064-1.892c25.388,0,46.042,20.654,46.042,46.041
				c0,2.025-0.147,4.134-0.438,6.266c-0.381,2.789,0.832,5.557,3.142,7.167c2.31,1.611,5.325,1.792,7.811,0.469
				c1.805-0.96,3.76-1.446,5.811-1.446c6.827,0,12.382,5.554,12.382,12.366l-0.011,0.396c-0.049,2.246,0.912,4.396,2.618,5.857
				c1.705,1.461,3.975,2.08,6.188,1.689c1.603-0.284,3.211-0.428,4.781-0.428c15.045,0,27.285,12.24,27.285,27.285
				c0,8.247-3.68,15.969-10.096,21.184c-1.74,1.415-2.757,3.534-2.77,5.777C319.203,177.718,320.194,179.849,321.918,181.284z"/>
			<path d="M160.92,134.375c-4.143,0-7.5,3.357-7.5,7.5v33.08c-2.714,0.399-5.402,1.008-8.043,1.836
				c-8.919,2.795-16.814,7.881-23.008,14.771c-11.923-11.73-20.088-16.007-20.759-16.347c-3.677-1.86-8.151-0.396-10.037,3.273
				c-1.886,3.668-0.435,8.181,3.221,10.088c0.295,0.154,29.848,16.077,59.433,74.611c1.297,2.566,3.912,4.118,6.691,4.118
				c0.577,0,1.16-0.067,1.741-0.205c3.377-0.806,5.761-3.823,5.761-7.296v-117.93C168.42,137.733,165.063,134.375,160.92,134.375z
				 M132.646,202.619c4.518-5.408,10.446-9.392,17.219-11.515c1.173-0.368,2.361-0.654,3.555-0.904v40.959
				C146.138,219.523,139.087,210.145,132.646,202.619z"/>
			<path d="M257.032,203.212c-2.203-3.509-6.831-4.566-10.34-2.367c-3.495,2.192-6.788,4.487-9.931,6.84
				c-8.843-12.246-22.519-19.997-37.755-21.21v-20.676c0-4.143-3.357-7.5-7.5-7.5c-4.143,0-7.5,3.357-7.5,7.5v116.272
				c0,3.73,2.744,6.888,6.438,7.417c0.358,0.052,0.715,0.077,1.067,0.076c3.285,0,6.25-2.166,7.196-5.398
				c0.128-0.436,13.237-43.813,55.957-70.614C258.174,211.35,259.233,206.721,257.032,203.212z M199.007,248.96v-47.403
				c10.664,1.203,20.135,6.933,26.164,15.769C213.758,227.854,205.225,239.014,199.007,248.96z"/>
		</g>
	</g>
</g>
<g>
</g>
<g>
</g>
<g>
</g>
<g>
</g>
<g>
</g>
<g>
</g>
<g>
</g>
<g>
</g>
<g>
</g>
<g>
</g>
<g>
</g>
<g>
</g>
<g>
</g>
<g>
</g>
<g>
</g>
</svg>
