<svg viewBox="-13 0 512 512" xmlns="http://www.w3.org/2000/svg"><path d="m442.273438 380.914062c-4.859376-2.621093-10.925782-.8125-13.550782 4.046876l-.363281.660156c-2.664063 4.839844-.898437 10.921875 3.941406 13.585937 1.527344.839844 3.179688 1.238281 4.8125 1.238281 3.527344 0 6.949219-1.871093 8.769531-5.179687l.4375-.796875c2.625-4.859375.8125-10.929688-4.046874-13.554688zm0 0"/><path d="m314.355469 83.367188c-.027344-.007813-.125-.03125-.15625-.039063-5.351563-1.28125-10.703125 2.015625-12.007813 7.367187-1.304687 5.347657 1.996094 10.753907 7.339844 12.082032.027344.007812.125.03125.152344.039062.78125.1875 1.5625.273438 2.328125.273438 4.5 0 8.566406-3.070313 9.679687-7.640625 1.304688-5.347657-1.992187-10.753907-7.335937-12.082031zm0 0"/><path d="m484.90625 163.996094c-3.035156-16.894532-16.632812-31.019532-33.832031-35.160156-1.300781-.3125-2.601563-.558594-3.902344-.75-8.371094-47.449219-40.820313-67.570313-67.378906-76.074219-20.113281-6.441407-39.445313-7.167969-50.011719-6.933594-2.101562-5.1875-5.722656-12.074219-11.839844-18.976563-10.554687-11.90625-30.863281-26.101562-67.679687-26.101562-36.988281 0-58.777344 16.96875-70.542969 31.203125-8.136719 9.839844-12.667969 19.738281-14.917969 25.765625-11.300781 3.472656-23.109375 8.621094-35.390625 15.457031-8.328125-2.5625-25.800781-6.210937-42.886718 1.097657-12.808594 5.480468-22.648438 15.757812-29.3125 30.601562-25.648438 4.015625-44.71875 18.6875-52.816407 40.917969-9.222656 25.316406-2.296875 56.242187 17.179688 78.90625-2.492188 8.050781-4.261719 22.121093 3.667969 40.460937-15.382813 12.453125-25.242188 31.472656-25.242188 52.761719 0 17.742187 6.804688 34.523437 19.15625 47.253906 10.34375 10.660157 23.640625 17.523438 38.089844 19.789063 7.609375 44.234375 30.796875 81.859375 64.40625 104.082031 23.835937 15.761719 52.339844 23.703125 84.234375 23.703125 19.75 0 40.804687-3.054688 62.847656-9.171875 63.070313-.441406 121.46875-30.15625 160.40625-81.703125 3.328125-4.40625 2.453125-10.679688-1.953125-14.007812-4.410156-3.332032-10.679688-2.453126-14.007812 1.953124-32.75 43.359376-80.683594 69.609376-133.011719 73.316407 2.871093-10.136719 8.054687-25.542969 16.625-42.320313 13.308593-26.054687 30.101562-46.902344 50.128906-62.324218.234375-.148438.460937-.308594.6875-.476563 6.863281-5.25 14.160156-9.878906 21.738281-13.820313.226563-.117187.457032-.234374.683594-.347656.90625-.46875 1.820312-.921875 2.734375-1.367187.398437-.195313.800781-.390625 1.199219-.582031.832031-.394532 1.664062-.777344 2.503906-1.15625.441406-.199219.878906-.40625 1.324219-.601563 37.203125-16.417969 62.785156-45.710937 74.210937-84.863281.40625 5.222656.621094 10.484375.621094 15.777344 0 22.867187-3.816406 45.238281-11.347656 66.496093-1.84375 5.207031.878906 10.925781 6.085937 12.769531 1.105469.390626 2.230469.574219 3.339844.574219 4.117187 0 7.972656-2.5625 9.425781-6.664062 8.292969-23.40625 12.496094-48.027344 12.496094-73.175781 0-25.46875-4.308594-50.292969-12.785156-73.917969 19.292968-15.203125 28.375-33.980469 25.066406-52.390625zm-19.683594 3.539062c2.21875 12.347656-5.917968 25.449219-22.917968 36.894532-.070313.046874-.132813.101562-.203126.148437-.132812.089844-.261718.1875-.390624.285156-.140626.105469-.273438.214844-.40625.328125-.050782.042969-.109376.085938-.160157.128906-.003906.003907-.003906.003907-.003906.007813-.054687.046875-.101563.097656-.152344.144531-.136719.128906-.269531.257813-.394531.390625-.09375.097657-.183594.195313-.273438.296875-.03125.035156-.066406.070313-.097656.105469-.023437.023437-.046875.046875-.066406.074219-.066406.078125-.128906.164062-.195312.246094-.085938.109374-.167969.222656-.25.335937-.101563.136719-.203126.277344-.296876.425781-.023437.039063-.054687.078125-.082031.117188-.054687.09375-.105469.1875-.160156.28125-.082031.136718-.160156.273437-.234375.417968-.066406.125-.128906.257813-.191406.386719-.027344.058594-.054688.117188-.082032.175781-.042968.09375-.082031.195313-.125.292969-.066406.164063-.128906.335938-.1875.507813-.039062.113281-.082031.226562-.117187.34375-.011719.042968-.027344.089844-.039063.132812-.042968.144532-.078124.292969-.113281.441406-.035156.140626-.066406.285157-.09375.425782-.027343.125-.050781.25-.070312.375-.007813.050781-.011719.101562-.019531.15625-.023438.152344-.039063.308594-.054688.464844-.015625.148437-.023438.300781-.03125.449218-.003906.121094-.015625.242188-.015625.359375v.078125c0 .042969.007813.089844.007813.132813 0 .132812.003906.265625.011718.394531.007813.207031.027344.414062.050782.625.007812.070312.007812.140625.015624.210938.132813.960937 3.082032 23.867187-4.097656 51.253906-.875 3.335937-1.859375 6.585937-2.949218 9.746094-10.53125 30.535156-31.054688 52.703124-61.140626 65.980468l-.394531.171875c-.214843.097657-.421875.203125-.636719.296875-1.292968.582032-2.574218 1.179688-3.851562 1.792969-.484375.234375-.96875.464844-1.449219.703125-1.398437.691406-2.792969 1.394531-4.175781 2.128906-.65625.34375-1.304688.707032-1.953125 1.0625-.714844.390625-1.425781.78125-2.132813 1.183594-.910156.511719-1.816406 1.035156-2.714843 1.5625-.019531.011719-.035157.019531-.050781.03125-1.253907.738281-2.507813 1.476562-3.742188 2.246094-2.65625-21.273438-1.925781-52.710938 17.613281-63.566406 3.25-1.804688 5.230469-5.28125 5.140625-8.996094-.011718-.441406-.652344-37.445313 16.695313-60.660156 1.121093 8.757812 1.816406 20.203124.546875 32.574218-.5625 5.496094 3.433594 10.40625 8.929687 10.972656.347657.035157.691407.050782 1.03125.050782 5.066407 0 9.410157-3.832032 9.9375-8.980469 2.757813-26.886719-2.449219-49.484375-4.042969-55.566406.175782-5.023438 1.65625-25.398438 13.914063-37.5.007813-.007813.011719-.015625.019531-.019531.007813-.011719.019532-.019532.027344-.027344.039062-.039063.070312-.082032.109375-.125.253906-.261719.492187-.53125.710937-.816406.019532-.027344.046876-.050782.070313-.078126.398437-.523437.800781-1.019531 1.207031-1.503906.1875-.226562.378906-.445312.570313-.664062.191406-.214844.382812-.429688.574219-.636719.277343-.300781.554687-.601563.839843-.886719.039063-.042968.082031-.085937.125-.125 4.847657-4.871094 10.488281-7.632812 16.53125-8.054687.046875 0 .089844-.011719.136719-.015625.488281-.027344.964844-.050782 1.433594-.050782 2.191406 0 4.128906.304688 5.679687.679688 9.605469 2.3125 17.171875 10.050781 18.828125 19.253906zm-422.574218 86.617188c-6.296876-16.304688-1.613282-25.742188-.96875-26.914063 2.808593-3.964843 2.09375-9.015625-1.355469-12.464843-17.554688-17.554688-24.441407-42.828126-17.132813-62.882813 6.046875-16.609375 20.941406-26.761719 41.929688-28.585937.480468-.042969.949218-.117188 1.410156-.226563l-.105469.023437c.527344-.113281 13.011719-2.59375 22.15625 7.699219 1.976563 2.226563 4.722657 3.359375 7.480469 3.359375 2.363281 0 4.734375-.832031 6.640625-2.527344 4.125-3.667968 4.5-9.988281.832031-14.117187-7.378906-8.304687-15.898437-12.082031-23.296875-13.671875 3.871094-5.523438 8.554688-9.503906 14.019531-11.875 15.046876-6.523438 32.019532.523438 32.144532.574219 2.917968 1.269531 6.265625 1.074219 9.015625-.523438 50.746093-29.503906 80.480469-21.0625 95.46875-10.890625-.011719.003906-.023438.003906-.035157.007813-.511718.09375-1.019531.203125-1.53125.300781-.800781.15625-1.605468.3125-2.402343.480469-.800781.167969-1.601563.34375-2.398438.519531-.457031.101562-.917969.203125-1.375.308594-.960937.21875-1.917969.441406-2.871093.675781-.164063.039063-.324219.082031-.488282.121094-31.976562 7.875-61.890625 23.621093-87.039062 46.234375-1.660156 1.492187-3.285156 3.019531-4.890625 4.5625-.246094.234375-.496094.464844-.738281.699218-.105469.101563-.207032.203126-.308594.304688-.6875.667969-1.367188 1.339844-2.042969 2.015625-.339844.339844-.679687.679687-1.015625 1.023437-.683594.691407-1.363281 1.390626-2.039062 2.09375-.285157.296876-.570313.597657-.851563.894532-.734375.773437-1.460937 1.550781-2.183594 2.332031-.15625.167969-.308593.339844-.460937.507813-23.894532 26.136718-41.003906 58.105468-49.675782 92.800781-.039062.15625-.078124.3125-.117187.464843-.285156 1.15625-.5625 2.308594-.832031 3.46875-.082032.355469-.15625.707032-.238282 1.0625-.226562 1.003907-.449218 2.011719-.664062 3.023438-.125.589844-.238281 1.183594-.355469 1.773438-.164062.804687-.332031 1.609374-.484375 2.417968-.007812.039063-.015625.074219-.023437.109375-.269531.007813-.539063.03125-.8125.042969-.441407.019531-.878907.042969-1.316407.070312-.632812.039063-1.265624.085938-1.894531.144532-.46875.042968-.933593.082031-1.398437.136718-.597656.0625-1.195313.144532-1.789063.226563-.476562.066406-.949219.125-1.421875.199219-.617187.097656-1.234375.214844-1.847656.332031-.429688.078125-.863281.148437-1.289062.238281-1.007813.210938-2.011719.441406-3.007813.695313-.292969.074219-.582031.164062-.875.242187-.75.203125-1.5.410156-2.246094.640625-.285156.085938-.570312.183594-.855469.277344-.757812.246094-1.511718.5-2.261718.769531-.226563.082032-.449219.167969-.675782.253906-.496093.179688-.996093.355469-1.484374.550782zm90.039062 217.460937c-30.675781-20.28125-51.347656-55.84375-56.75-97.59375-.496094-8.1875-2.410156-33.492187-7.496094-42.820312-2.644531-4.847657-8.722656-6.632813-13.570312-3.992188-4.847656 2.648438-6.636719 8.722657-3.992188 13.570313 1.332032 2.4375 2.960938 11.753906 4.097656 22.519531-20.3125-5.589844-34.972656-24.0625-34.972656-46.125 0-19.789063 12.074219-36.816406 29.238282-44.09375.011718-.003906.019531-.007813.03125-.015625.667968-.28125 1.34375-.546875 2.027343-.800781.066407-.023438.132813-.050781.203125-.074219.679688-.25 1.371094-.480469 2.066406-.699219.035157-.011719.070313-.023437.101563-.035156.695313-.214844 1.394531-.414063 2.101563-.597656.265624-.066407.53125-.128907.792968-.191407.425782-.105468.847656-.203124 1.273438-.296874.351562-.070313.699218-.140626 1.050781-.207032s.699219-.128906 1.050781-.1875c.378906-.0625.757813-.125 1.136719-.179687.339844-.046875.683594-.089844 1.023437-.128907.382813-.046874.765626-.097656 1.148438-.132812.535156-.050781 1.078125-.089844 1.621094-.125.453125-.027344.90625-.046875 1.359375-.0625.421875-.011719.839843-.027344 1.261719-.03125.34375-.003906.691406.003906 1.035156.007812.414062.003907.824218.015626 1.230468.03125.339844.011719.675782.027344 1.015626.046876.449218.027343.898437.0625 1.34375.105468.28125.023438.5625.042969.84375.070313.503906.054687 1.003906.125 1.5.195312.257812.035157.519531.0625.777343.101563 18.953125 2.9375 34.265625 17.035156 38.992188 35.339844 0 .007812.003906.015624.003906.023437.179687.699219.34375 1.410156.492187 2.121094.019532.097656.042969.1875.058594.28125.128906.632812.242188 1.269531.34375 1.910156.023438.160156.054688.316406.078125.476563.089844.589843.160157 1.179687.226563 1.773437.023437.203125.050781.40625.070312.609375.058594.582031.097656 1.167969.136719 1.753906.011719.210938.03125.417969.042969.625.039062.789063.058594 1.585938.058594 2.386719 0 5.492187-.921876 10.878906-2.746094 16.011719-1.757813 4.957031.621094 10.429687 5.445312 12.523437 30.96875 13.433594 43.234375 59.046875 47.300782 79.867188-12.433594 1.421875-22.25 5.417969-29.257813 11.996093-4.027344 3.777344-4.226563 10.109376-.445313 14.136719 1.964844 2.097657 4.625 3.15625 7.292969 3.15625 2.453125 0 4.914063-.898437 6.839844-2.710937 5.207031-4.886719 14.339844-7.351563 27.144531-7.171875h.097656c.039063 0 .074219-.007813.109376-.007813.042968 0 .085937.003906.128906.003906 1.117187-.027343 2.21875-.042968 3.308594-.046874h.453124c1.019532 0 2.03125.003906 3.023438.023437.042969 0 .085938 0 .125.003906 38.816406.699219 56.957031 15.417969 65.417969 28.453125v.003906c.230469.359376.457031.71875.675781 1.074219.011719.019531.027344.039063.039062.0625.433594.710938.839844 1.414063 1.21875 2.109375.035157.0625.070313.125.105469.191406.140625.265626.28125.53125.417969.792969.046875.089844.09375.183594.144531.277344.128907.253906.253907.507813.378907.757813.035156.074218.070312.148437.105468.21875.148438.304687.289063.601562.421875.898437.058594.125.113281.246094.167969.371094.078125.175781.15625.355469.234375.53125.0625.144531.125.289062.1875.433593.0625.148438.125.296876.183594.445313.0625.152344.125.300781.183593.449219.046876.121094.09375.242187.140626.363281.121093.308594.238281.613281.347656.914063.03125.09375.066406.1875.101562.277343.0625.179688.125.351563.183594.527344.03125.082031.058594.167969.085938.25.0625.183594.125.367187.183593.542969 0 0 .003907.003906.003907.003906.070312.226562.144531.449219.210937.667969-48.683594 11.9375-91.066406 7.164062-123.015625-13.960938zm154.945312-56.113281c1.601563-17.613281 2.324219-34.59375 2.1875-50.910156.03125-.472656.019532-.953125-.015624-1.4375-.125-10.671875-.597657-21.066406-1.46875-31.136719-1.296876-14.957031-3.429688-29.25-6.355469-42.847656 7.289062-22.71875 29.5-75.363281 56.984375-82.058594 5.367187-1.304687 8.65625-6.71875 7.351562-12.082031-1.308594-5.367188-6.71875-8.652344-12.085937-7.351563-19.644531 4.785157-37.847657 23.101563-54.097657 54.441407-2.636718 5.085937-4.996093 10.085937-7.078124 14.789062-2.960938-8.621094-6.296876-16.890625-10.027344-24.765625-23.527344-49.640625-54.191406-66.917969-55.484375-67.628906-4.839844-2.660157-10.921875-.894531-13.582031 3.945312-2.664063 4.839844-.894532 10.921875 3.945312 13.582031.378906.210938 13.765625 7.953126 28.886719 28.269532-6.335938-1.84375-13.015625-3.136719-19.839844-3.785156-24.460937-2.324219-47.070313 3.835937-63.667969 17.351562-4.28125 3.488281-4.925781 9.789062-1.4375 14.070312 3.488282 4.285157 9.789063 4.925782 14.070313 1.441407 26.980469-21.980469 71.320312-13.695313 89.632812 2.722656 10.222657 22.003906 19.03125 51.148437 22.601563 89.148437-12.203125-7.945312-27.515625-11.214843-41.558594-11.214843-.050781 0-.101562 0-.152344 0-5.523437.011719-9.996094 4.496093-9.984375 10.019531.007813 5.519531 4.484375 9.984375 10 9.984375h.121094c8.769531 0 36.925781 1.882813 43.25 25.140625.214844 26.675781-1.996094 56.929688-7.535156 91.175781-11.417969-14.148437-33.726563-30.355469-76.289063-31.386719-3.691406-20.832031-16.179687-72.195312-51.761718-93.578124.996093-4.65625 1.496093-9.414063 1.496093-14.226563 0-1.089844-.03125-2.167969-.082031-3.246094-.015625-.308593-.039062-.613281-.058594-.921875-.046875-.789062-.105468-1.570312-.175781-2.351562-.03125-.3125-.066406-.625-.101563-.941406-.089843-.820313-.191406-1.636719-.3125-2.445313-.03125-.226563-.0625-.453125-.097656-.679687-4.121094-26.394532-23.410156-47.945313-49.171875-54.914063 16.300781-82.828125 84.480469-145.578125 165.175781-153.144531.070313-.003906.140626-.011719.210938-.019532 5.34375-.492187 10.746094-.746093 16.1875-.746093 3.277344 0 6.597656.089843 9.875.265625 5.523438.300781 10.230469-3.925782 10.53125-9.441406.300781-5.515626-3.929688-10.230469-9.445312-10.527344-3.636719-.199219-7.324219-.300782-10.960938-.300782-3.527344 0-7.050781.105469-10.558594.292969-5.5625-6.84375-17.417968-18.414062-37.117187-23.671875-9.527344-2.542968-19.652344-3.328125-30.328125-2.371094 8.492187-13.890624 26.222656-32.003906 60.953125-32.003906 42.222656 0 56.375 21.582032 60.734375 31.914063l-5.125 4.070312c-4.324219 3.4375-5.042969 9.726563-1.605469 14.050781 1.972656 2.484376 4.890625 3.777344 7.835937 3.777344 2.179688 0 4.375-.707031 6.214844-2.167968l8.089844-6.429688c7.082031-.386719 26.851562-.707031 47.285156 5.839844 29.742188 9.523437 47.691406 29.273437 53.46875 58.761718-.03125.011719-.058594.019532-.085937.03125-.414063.140626-.824219.285157-1.234375.4375-.132813.050782-.269532.09375-.402344.144532-.527344.199218-1.050781.410156-1.566406.632812-.21875.089844-.433594.191406-.648438.289063-.300781.132812-.605468.261719-.902344.402343-.273437.128907-.542968.265626-.808593.398438-.242188.117188-.488281.234375-.726563.359375-.28125.144531-.554687.292969-.828125.441406-.230469.125-.460937.25-.6875.378907-.277343.15625-.550781.316406-.824219.476562-.226562.132812-.449218.269531-.675781.40625-.269531.164062-.535156.335938-.804687.507812-.222656.140626-.449219.289063-.671875.4375-.261719.171876-.523438.351563-.78125.53125-.226563.15625-.453125.316407-.675781.476563-.253907.179687-.503907.363281-.753907.550781-.230469.171875-.457031.347656-.683593.523438-.242188.183594-.480469.371094-.71875.5625-.234376.191406-.46875.382812-.703126.578125-.199218.167969-.40625.335937-.605468.507812-20.207032-20.585937-44.511719-36.820312-70.878906-47.234375-5.136719-2.027344-10.945313.488282-12.976563 5.625-2.027344 5.136719.492187 10.949219 5.628906 12.976563 24.167969 9.546875 46.425781 24.542969 64.859375 43.582031-10.117187 14.332031-12.714844 31.609375-13.367187 40.242188-28.464844 22.269531-32.660157 64.839843-33.21875 80.378906-30.769531 22.375-24.363281 73.015625-20.949219 90.953125-16.375 13.519531-30.796875 30.355469-42.835938 50.082031zm0 0"/><path d="m200.535156 346.566406c2.46875 0 4.941406-.914062 6.871094-2.765625 4.207031-3.582031 4.710938-9.894531 1.132812-14.097656-3.582031-4.207031-9.898437-4.710937-14.101562-1.128906-.277344.238281-.546875.476562-.804688.722656-3.988281 3.824219-4.152343 10.183594-.332031 14.171875 1.972657 2.058594 4.601563 3.097656 7.234375 3.097656zm0 0"/></svg>