<svg height="488pt" viewBox="-61 0 488 488.55715" width="488pt" xmlns="http://www.w3.org/2000/svg"><path d="m187.789062 456.398438h-14.378906c-37.015625 0-67.125-30.109376-67.125-67.125v-218.125h16.300782v218.125c0 28.023437 22.800781 50.824218 50.824218 50.824218h13.925782l20.445312-2.273437c25.777344-2.859375 45.214844-24.570313 45.207031-50.507813v-265.070312h16.300781v265.066406c.007813 34.257812-25.660156 62.933594-59.710937 66.714844l-20.890625 2.324218c-.292969.03125-.597656.046876-.898438.046876zm0 0"/><path d="m187.789062 456.398438c-1.242187 0-2.492187-.285157-3.648437-.859376-22.882813-11.445312-37.101563-34.449218-37.105469-60.035156v-281.40625h16.300782v281.40625c.003906 17.71875 9.007812 33.804688 23.800781 43.050782l4.78125-3.582032c12.71875-9.550781 20.320312-24.742187 20.320312-40.660156v-263.917969h16.296875v263.914063c0 21.019531-10.035156 41.09375-26.84375 53.699218l-9.019531 6.757813c-1.4375 1.085937-3.15625 1.632813-4.882813 1.632813zm0 0"/><path d="m73.6875 228.199219c-1.34375 0-2.675781-.332031-3.882812-.984375-2.128907-1.15625-3.636719-3.195313-4.109376-5.566406l-6.839843-34.199219h-34.070313c-2.824218 0-5.445312-1.464844-6.929687-3.867188-1.484375-2.402343-1.621094-5.402343-.359375-7.929687l13.257812-26.515625-27.160156-20.371094c-2.421875-1.820313-3.640625-4.832031-3.15625-7.824219.488281-2.992187 2.597656-5.46875 5.46875-6.429687l37.8125-12.601563-25.296875-31.625c-1.824219-2.285156-2.289063-5.371094-1.210937-8.089844 1.078124-2.722656 3.527343-4.652343 6.421874-5.066406l48.519532-6.929687-6.457032-32.304688c-.632812-3.164062.660157-6.402343 3.292969-8.261719 2.644531-1.859374 6.121094-1.984374 8.890625-.324218l34.449219 20.667968 20.039063-26.722656c1.691406-2.253906 4.394531-3.457031 7.25-3.2265622 2.816406.2539062 5.292968 1.9453122 6.558593 4.4726562l13.375 26.753906 26.257813-6.5625c2.429687-.621094 5.011718-.066406 6.992187 1.480469s3.136719 3.914063 3.136719 6.425781v11.324219l9.3125-15.519531c1.390625-2.324219 3.859375-3.804688 6.566406-3.945313 2.839844-.191406 5.308594 1.082031 6.9375 3.25l15.753906 21 10.910157-27.289062c.964843-2.398438 2.992187-4.195313 5.492187-4.851563 2.484375-.667968 5.148438-.09375 7.171875 1.515625l37.597657 30.078125 28.683593-7.171875c2.429688-.609375 5.007813-.0625 6.988281 1.484375 1.984376 1.542969 3.136719 3.910156 3.136719 6.421875v35.714844l28.097657 14.046875c2.480468 1.246094 4.167968 3.667969 4.457031 6.429688.292969 2.765624-.84375 5.488281-3.011719 7.222656l-35.609375 28.484375 13.355469 26.707031c1.105468 2.214844 1.148437 4.804688.113281 7.050781-1.027344 2.246094-3.027344 3.902344-5.429687 4.503907l-26.421876 6.605468v26.234375c0 2.707031-1.347656 5.234375-3.582031 6.75-2.238281 1.519531-5.09375 1.824219-7.59375.820313l-40.75-16.300782 6.046875-15.136718 29.578125 11.832031v-20.5625c0-3.742187 2.546875-7.003906 6.175781-7.910156l22.738282-5.6875-11.753906-23.507813c-1.722657-3.441406-.804688-7.609375 2.195312-10.011718l30.808594-24.644532-21.210938-10.597656c-2.757812-1.382812-4.503906-4.203125-4.503906-7.292969v-30.3125l-22.476562 5.621094c-2.457032.609375-5.078126.042969-7.066407-1.542969l-32.171875-25.738281-12.214844 30.550781c-1.097656 2.734375-3.582031 4.664063-6.503906 5.050782-2.960937.375-5.816406-.839844-7.585937-3.1875l-17.171875-22.90625-18.21875 30.359374c-1.886719 3.140626-5.636719 4.625-9.167969 3.660157-3.527344-.976563-5.972656-4.191407-5.972656-7.855469v-30.308594l-22.472657 5.617188c-3.726562.917968-7.554687-.84375-9.269531-4.261719l-10.402343-20.804687-16.539063 22.050781c-2.503906 3.34375-7.136719 4.242187-10.710937 2.097656l-24.953126-14.96875 4.539063 22.683594c.441406 2.195312-.042969 4.476562-1.335937 6.304687-1.292969 1.828125-3.285157 3.046875-5.5 3.359375l-42.929688 6.132813 23.6875 29.613281c1.667969 2.078125 2.210938 4.84375 1.453125 7.398437-.757813 2.554688-2.710937 4.578126-5.238281 5.421876l-34.144532 11.382812 20.15625 15.117188c3.152344 2.359374 4.160157 6.640624 2.402344 10.164062l-10.402344 20.804688h27.558594c3.886719 0 7.230469 2.742187 7.992188 6.550781l6.226562 31.144531 31.65625-12.664062 6.054688 15.136718-40.75 16.300782c-.976563.386718-2 .582031-3.027344.582031zm0 0"/><path d="m187.789062 211.898438c-1.246093 0-2.496093-.289063-3.648437-.863282l-32.597656-16.296875 7.289062-14.582031 20.804688 10.402344v-27.5625c0-2.726563 1.363281-5.269532 3.628906-6.78125l14.867187-9.910156-23.386718-17.539063c-1.890625-1.417969-3.070313-3.585937-3.238282-5.941406-.167968-2.355469.695313-4.667969 2.367188-6.339844l17.421875-17.421875-16.179687-10.785156 9.039062-13.5625 24.453125 16.296875c2.027344 1.355469 3.351563 3.550781 3.589844 5.980469.238281 2.429687-.621094 4.839843-2.351563 6.566406l-17.800781 17.800781 25.078125 18.816406c2.117188 1.582031 3.332031 4.097657 3.261719 6.746094-.078125 2.640625-1.425781 5.085937-3.628907 6.554687l-20.820312 13.878907v36.390625c0 2.824218-1.464844 5.445312-3.871094 6.929687-1.300781.8125-2.789062 1.222657-4.277344 1.222657zm0 0"/><path d="m187.789062 244.496094c-1.226562 0-2.453124-.273438-3.582031-.828125-2.28125-1.117188-3.914062-3.230469-4.410156-5.722657l-8.148437-40.746093 15.980468-3.203125 6.054688 30.289062 23.058594-11.527344 7.289062 14.582032-32.597656 16.296875c-1.148438.574219-2.394532.859375-3.644532.859375zm0 0"/><path d="m293.738281 285.246094c-1.25 0-2.492187-.285156-3.644531-.859375l-32.601562-16.296875 7.289062-14.582032 20.804688 10.402344v-19.414062c0-3.328125 2.03125-6.328125 5.128906-7.566406l29.273437-11.707032-23.863281-23.863281 11.523438-11.523437 32.601562 32.597656c1.933594 1.9375 2.769531 4.71875 2.222656 7.402344-.550781 2.683593-2.414062 4.910156-4.960937 5.929687l-35.625 14.25v27.082031c0 2.824219-1.460938 5.445313-3.867188 6.933594-1.304687.808594-2.792969 1.214844-4.28125 1.214844zm0 0"/><path d="m244.839844 489h-16.300782c0-14.558594-10.863281-27.085938-25.277343-29.148438l-23.523438-3.359374-16.25 2.714843c-14.257812 2.375-24.605469 14.582031-24.601562 29.035157l-8.148438.757812h-8.152343v-.757812c-.003907-22.453126 16.070312-41.425782 38.222656-45.113282l17.488281-2.917968c.824219-.128907 1.667969-.152344 2.488281-.03125l24.78125 3.53125c22.390625 3.210937 39.273438 22.675781 39.273438 45.289062zm0 0"/><path d="m212.238281 489h-16.300781c0-8.214844-3.328125-16.253906-9.136719-22.0625l-5.894531-5.898438-4.179688 6.269532c-3.429687 5.144531-5.238281 11.128906-5.238281 17.304687v4.386719h-16.300781v-4.386719c0-9.40625 2.757812-18.519531 7.980469-26.34375l9.6875-14.542969c1.355469-2.027343 3.546875-3.351562 5.980469-3.589843 2.453124-.207031 4.835937.621093 6.5625 2.347656l12.925781 12.925781c8.84375 8.84375 13.914062 21.085938 13.914062 33.589844zm0 0"/></svg>