<?xml version="1.0" encoding="utf-8"?>
<!-- Generator: Adobe Illustrator 19.0.0, SVG Export Plug-In . SVG Version: 6.00 Build 0)  -->
<svg version="1.1" id="outline" xmlns="http://www.w3.org/2000/svg" xmlns:xlink="http://www.w3.org/1999/xlink" x="0px" y="0px"
	 viewBox="-49 141 512 512" style="enable-background:new -49 141 512 512;" xml:space="preserve">
<path d="M415.5,276.8c-1.2-3.3-3.5-6.2-6.5-8.1l-0.1-0.1l20.8-31.2c6.1-9.2,9.4-20,9.4-31.1V181c0-13.2-10.8-24-24-24h-8
	c-13.2,0-24,10.8-24,24v18.4c0,1.8-0.6,3.6-1.8,5l-25.1,31.4l-6.3-3.9c-3.4-2.1-7.4-2.9-11.3-2.2l-71.6,13
	c-10.7,2-20.1,8.2-26.1,17.2l-6.3,9.4c-2.7,4.1-3.4,9.2-1.9,13.9l5.5,16.5c1.5,4.5,5,8.1,9.5,9.8L210,366.1
	c-19.5,29.3-52.4,46.9-87.6,46.9H87c-61.9,0-112,50.1-112,112S25.1,637,87,637h13.2c137.4-0.2,257.8-92.2,294.1-224.7l8.1-29.5
	l8.8,7c2.8,2.3,6.4,3.5,10,3.5c0.8,0,1.6-0.1,2.4-0.2c4.4-0.7,8.4-3.2,10.9-6.9l2.2-3.3c7-10.6,8.6-23.9,4.3-35.9L415.5,276.8z
	 M393.7,214.4c3.4-4.3,5.3-9.5,5.3-15V181c0-4.4,3.6-8,8-8h8c4.4,0,8,3.6,8,8v25.5c0,7.9-2.3,15.6-6.7,22.2l-21,31.6l-25.4-15.9
	L393.7,214.4z M378.9,408.1C344.5,533.7,230.4,620.8,100.2,621H87c-53,0-96-43-96-96s43-96,96-96h35.4c40.5,0,78.4-20.2,100.9-54
	l40.1-60.1l24.9,8.3l12.8,51.4c2.1,8.6,10.8,13.8,19.4,11.7c0.4-0.1,0.8-0.2,1.2-0.4l59.7-19.9l7.4,5.9L378.9,408.1z M423.4,374
	l-2.2,3.3l-29.8-23.8c-4.2-3.4-9.9-4.4-15.1-2.7l-59.7,19.9l-12.8-51.4c-1.3-5.3-5.3-9.6-10.5-11.3l-40-13.4l-5.5-16.5l6.3-9.4
	c3.6-5.4,9.3-9.1,15.7-10.3l71.6-13l59,36.9l25.5,70.2C428.5,359.7,427.6,367.7,423.4,374z"/>
<path d="M128.8,253.4l14.5-9.7c6.6-4.4,14.3-6.7,22.2-6.7h66.9c1.8,0,3.6,0.1,5.4,0.4l2.2-15.8c-2.5-0.4-5.1-0.5-7.6-0.5H223v-24
	c0-22.1-17.9-40-40-40h-32c-8.8,0-16,7.2-16,16v16c0,8.8,7.2,16,16,16h24v16h-9.5c-11.1,0-21.9,3.3-31.1,9.4l-14.5,9.7
	C104.3,250.5,95,268,95,286.7v6.3c0,8.8,7.2,16,16,16h12.7c1.1,0,2.2-0.1,3.3-0.4v31.2c0,16-5.4,31.6-15.2,44.2l12.6,9.8
	c12-15.5,18.5-34.5,18.6-54.1v-43.5l3.3-3.3h5.3c7.3,0,14.2,3.3,18.7,9l16.1,20.2c5.5,6.9,15.6,8,22.5,2.5c0.9-0.7,1.8-1.6,2.5-2.5
	l6.5-8.2l0,0l3.2-4l-12.5-10l-3.2,4l6.2,5l-6.3-5l-6.5,8.2L182.9,292c-7.6-9.5-19.1-15-31.2-15h-5.3c-4.2,0-8.3,1.7-11.3,4.7
	L123.7,293H111v-6.3C111,273.3,117.7,260.8,128.8,253.4z M175,189h-24v-16h32c13.2,0,24,10.8,24,24v24h-16v-16
	C191,196.2,183.8,189,175,189z"/>
</svg>
