<?xml version="1.0" encoding="iso-8859-1"?>
<!-- Generator: Adobe Illustrator 19.0.0, SVG Export Plug-In . SVG Version: 6.00 Build 0)  -->
<svg version="1.1" id="Capa_1" xmlns="http://www.w3.org/2000/svg" xmlns:xlink="http://www.w3.org/1999/xlink" x="0px" y="0px"
	 viewBox="0 0 410.4 410.4" style="enable-background:new 0 0 410.4 410.4;" xml:space="preserve">
<g>
	<g>
		<g>
			<path d="M294.318,335.2c-21.2,0.8-40.8,0.4-59.2-1.2c-32-225.6-217.2-228.4-225.2-228.4c-3.6,0-6.8,3.2-6.8,6.8
				c0,0.8-0.4,40,17.2,86.4v0.4c0,1.6,0.8,2.8,2,4c24,59.2,78,128.4,200.8,143.2c2,18,3.2,37.2,3.2,57.2c0,2.8,1.6,5.2,4.4,6.4
				c0.8,0.4,1.6,0.4,2.8,0.4c1.6,0,3.6-0.8,4.8-2l61.6-61.6c2-2,2.4-5.2,1.6-7.6C299.518,336.8,297.118,334.8,294.318,335.2z
				 M16.318,119.6c13.2,0.8,42,4.8,73.6,19.2c-0.8,0.8-1.6,1.6-2,2.8c-0.4,2-14,43.2-57.2,49.2
				C19.519,159.6,17.118,132,16.318,119.6z M36.318,204.4c49.2-9.2,64.4-56.4,65.2-58.4c0-0.4,0-0.8,0-1.2
				c49.2,26,102.8,79.2,119.2,188C110.318,317.6,59.519,257.6,36.318,204.4z M239.519,387.6c-0.4-13.6-1.2-26.8-2.8-39.6
				c13.2,1.2,26.8,1.6,40.8,1.6L239.519,387.6z"/>
			<path d="M49.118,144.8c-4,4-4,10.8,0,14.8s10.8,4,14.8,0s4-10.8,0-14.8S53.118,140.8,49.118,144.8z"/>
			<path d="M406.719,233.6c-1.2-2.8-4-4.4-6.8-4c-21.2,0.8-40.8,0.4-59.2-1.2C308.719,2.8,123.519,0,115.519,0
				c-3.6,0-6.8,3.2-6.8,6.8c0,0.8-0.4,40,17.2,86.4v0.4c0,1.6,0.8,2.8,2,4c24,59.2,78,128.4,200.8,143.2c2,18,3.2,37.2,3.2,57.2
				c0,2.8,1.6,5.2,4.4,6.4c0.8,0.4,1.6,0.4,2.8,0.4c1.6,0,3.6-0.8,4.8-2l61.2-61.6C407.118,239.2,407.918,236,406.719,233.6z
				 M122.318,13.6c13.2,1.2,41.6,4.8,73.6,19.2c-0.8,0.8-1.6,1.6-2,2.8c0,0.4-14,42.8-57.2,49.2
				C125.519,53.6,123.118,26,122.318,13.6z M142.318,98.4c49.2-9.2,64.4-56.4,64.8-58.4c0-0.4,0-0.8,0-1.2
				c49.2,26,102.8,79.2,119.2,188C216.318,211.6,165.519,152,142.318,98.4z M345.518,281.6c-0.4-13.6-1.2-26.8-2.8-39.6
				c13.2,1.2,26.8,1.6,40.8,1.6L345.518,281.6z"/>
			<path d="M155.118,38.8c-4,4-4,10.8,0,14.8s10.8,4,14.8,0s4-10.8,0-14.8S159.118,34.8,155.118,38.8z"/>
		</g>
	</g>
</g>
<g>
</g>
<g>
</g>
<g>
</g>
<g>
</g>
<g>
</g>
<g>
</g>
<g>
</g>
<g>
</g>
<g>
</g>
<g>
</g>
<g>
</g>
<g>
</g>
<g>
</g>
<g>
</g>
<g>
</g>
</svg>
