<svg id="Capa_1" enable-background="new 0 0 457.277 457.277" height="512" viewBox="0 0 457.277 457.277" width="512" xmlns="http://www.w3.org/2000/svg"><path d="m454.237 172.785c-17.003-12.984-35.143-24.407-54.2-34.13-25.26-12.91-52.715-18.566-78.167-16.22-5.558-24.724-19.311-49.088-39.576-69.354-15.154-15.104-31.625-28.825-49.219-41-2.687-1.792-6.189-1.792-8.876 0-17.594 12.175-34.065 25.896-49.219 41-20.123 20.124-33.987 44.492-39.589 69.346-25.271-2.336-52.677 3.219-78.137 16.218-19.063 9.726-37.208 21.152-54.217 34.14-2.528 2-3.609 5.322-2.741 8.427 6.121 20.503 14.079 40.413 23.777 59.486 13.012 25.463 31.91 46.155 53.743 59.027-10.022 23.268-13.221 51.065-8.761 79.378 3.362 21.123 8.609 41.903 15.679 62.09 1.119 3.026 3.947 5.084 7.171 5.218.367.015 3.272.129 8.088.129 18.711-.026 37.392-1.49 55.879-4.378 28.15-4.4 53.652-15.975 72.731-32.83 19.025 16.748 44.471 28.368 72.771 32.825 18.498 2.89 37.191 4.355 55.913 4.381 4.812 0 7.715-.114 8.082-.129 3.224-.134 6.052-2.192 7.171-5.218 7.071-20.19 12.319-40.973 15.681-62.1 4.408-28.211 1.255-56.039-8.818-79.311 21.792-12.892 40.738-33.506 53.8-59.086 9.699-19.073 17.658-38.981 23.78-59.484.865-3.105-.217-6.427-2.746-8.425zm-267.943-108.39c13.163-13.042 27.32-25.042 42.343-35.89 15.023 10.848 29.18 22.848 42.343 35.89 23.931 23.931 37.657 53.943 37.657 82.343 0 37.145-22.363 58.237-35.578 64.845-3.407 1.719-6.63 3.779-9.62 6.149-2.596-2.736-5.502-5.159-8.66-7.22 7.242-10.34 13.858-24.082 13.858-39.774h-16c0 13.058-6.459 24.795-12.946 33.3-5.32-1.27-10.82-1.612-16.257-1.012-1.169-2.892-2.003-5.908-2.485-8.989-2.721-18.222-18.739-52.786-61.534-66.751-2.682-.867-5.408-1.625-8.179-2.274 5.07-21.598 17.314-42.874 35.058-60.617zm42.343 218.343c-17.673 0-32-14.327-32-32s14.327-32 32-32 32 14.327 32 32c-.02 17.665-14.336 31.98-32 32zm-190.315-49.318c-8.348-16.538-15.383-33.705-21.042-51.345 14.956-10.947 30.75-20.701 47.235-29.172 30.076-15.356 62.872-19.144 89.961-10.4 35.35 11.535 48.47 39.305 50.652 53.915.582 3.751 1.542 7.434 2.864 10.993-3.406 1.632-6.608 3.66-9.54 6.041-7.6-10.088-18.6-20.621-33.511-25.446l-4.928 15.222c12.388 4.01 21.545 13.768 27.628 22.567-2.851 4.667-4.879 9.789-5.994 15.143-3.126.219-6.267.082-9.363-.406-18.155-3.052-55.941 1.5-82.443 37.912-1.642 2.267-3.197 4.607-4.664 7.021-18.909-11.367-35.371-29.573-46.855-52.045zm115.051 192.939c-18.326 2.842-36.847 4.233-55.391 4.163-5.769-17.601-10.156-35.626-13.122-53.909-5.268-33.443 1.268-65.8 17.925-88.768 21.9-30.088 52.328-33.981 66.889-31.53 3.762.598 7.575.819 11.381.66.491 3.765 1.431 7.458 2.8 11-11.918 4.076-25.318 11.263-34.568 23.977l12.94 9.411c7.716-10.609 19.851-16.278 30.085-19.3 3.563 4.125 7.797 7.617 12.525 10.33-.761 3.033-1.868 5.968-3.3 8.748-8.5 16.416-15.837 53.876 10.548 90.134 1.655 2.281 3.409 4.5 5.264 6.659-16.732 14.53-39.128 24.542-63.976 28.425zm219.041-49.746c-2.966 18.283-7.353 36.308-13.121 53.909-18.551.068-37.079-1.325-55.411-4.166-33.429-5.266-62.168-21.476-78.856-44.485-21.8-29.96-16.094-60.219-9.294-73.356 1.745-3.379 3.141-6.927 4.168-10.588 2.882.536 5.806.807 8.737.811.829 0 1.654-.021 2.473-.063.189 12.616 2.9 27.611 12.19 40.306l12.914-9.446c-7.723-10.559-9.369-23.836-9.081-34.508 5.046-2.117 9.694-5.079 13.744-8.758 2.669 1.657 5.135 3.62 7.348 5.849 9.715 9.84 30.844 22.7 58.748 22.7 10.265-.041 20.458-1.709 30.2-4.944 2.66-.859 5.3-1.838 7.9-2.917 8.609 20.341 11.232 44.755 7.341 69.656zm46.538-143.193c-15.422 30.205-39.731 52.521-66.716 61.233-35.242 11.5-62.232-3.249-72.613-13.762-2.681-2.712-5.634-5.142-8.811-7.252 1.805-3.314 3.209-6.831 4.185-10.477 7.589 2.389 15.489 3.644 23.445 3.722 6.331.033 12.627-.93 18.659-2.854l-4.928-15.223c-12.493 4.044-25.637 1.539-35.711-2-.441-5.446-1.816-10.776-4.066-15.755 2.401-2.012 5.024-3.742 7.819-5.157 16.499-8.251 44.422-34.206 44.422-79.157 0-2.8-.122-5.614-.347-8.432 22.184-1.849 46.2 3.217 68.484 14.6 16.48 8.469 32.269 18.22 47.22 29.164-5.659 17.641-12.695 34.811-21.042 51.35z"/><path d="m220.637 242.738h16v16h-16z"/><path d="m252.637 138.738h16v16h-16z"/><path d="m131.615 180.165h16v16h-16z" transform="matrix(.309 -.951 .951 .309 -82.484 262.8)"/><path d="m133.618 308.066h16v16.001h-16z" transform="matrix(.588 -.809 .809 .588 -197.33 244.877)"/><path d="m255.877 345.685h16.001v16h-16.001z" transform="matrix(.809 -.588 .588 .809 -157.493 222.644)"/><path d="m329.437 241.031h16v16h-16z" transform="matrix(.951 -.309 .309 .951 -60.449 116.49)"/></svg>