<svg height="512pt" viewBox="0 0 512.04113 512" width="512pt" xmlns="http://www.w3.org/2000/svg"><path d="m160.015625 255.746094c.308594.085937 31.742187 8.882812 63.292969 56.210937 2.613281 3.921875 7.914062 4.980469 11.835937 2.363281 3.917969-2.617187 4.976563-7.914062 2.363281-11.835937-35.558593-53.332031-71.773437-62.890625-73.300781-63.273437-4.511719-1.011719-9.003906 1.75-10.140625 6.230468-1.132812 4.480469 1.503906 9.046875 5.949219 10.304688zm0 0"/><path d="m209.527344 212.5c18.675781 9.605469 35.03125 23.179688 47.914062 39.765625 1.691406 2.535156 4.609375 3.976563 7.652344 3.78125 3.039062-.199219 5.746094-2.003906 7.097656-4.738281 1.351563-2.730469 1.140625-5.976563-.550781-8.515625-14.523437-19.074219-33.140625-34.648438-54.484375-45.566407-4.21875-2.105468-9.347656-.394531-11.453125 3.824219-2.105469 4.214844-.394531 9.34375 3.824219 11.449219zm0 0"/><path d="m259.839844 183.417969c11.84375 7.957031 22.824218 17.128906 32.757812 27.375 3.347656 3.050781 8.496094 2.953125 11.726563-.222657 3.230469-3.175781 3.417969-8.324218.425781-11.722656-10.769531-11.09375-22.667969-21.03125-35.507812-29.644531-2.542969-1.800781-5.867188-2.074219-8.667969-.707031-2.800781 1.363281-4.636719 4.148437-4.785157 7.261718-.152343 3.113282 1.410157 6.058594 4.066407 7.6875zm0 0"/><path d="m89.199219 454.992188c15.59375 4.777343 30.210937 12.289062 43.175781 22.1875 21.316406 15.898437 60.074219 34.839843 123.632812 34.839843 63.554688 0 102.3125-18.941406 123.628907-34.839843 12.964843-9.898438 27.585937-17.410157 43.179687-22.1875 29.066406-8.535157 79.257813-31.914063 88.867188-92.484376 1.160156-7.425781-.988282-14.984374-5.875-20.691406-4.886719-5.710937-12.023438-8.996094-19.539063-8.996094-.980469-72.867187-14.429687-122.878906-38.824219-146.457031l20.273438-60.636719c1.582031-4.140624 5.75-6.699218 10.15625-6.238281 13.046875.011719 24.957031-7.414062 30.691406-19.132812s4.285156-25.683594-3.730468-35.976563c-8.019532-10.292968-21.203126-15.117187-33.96875-12.425781-2.992188.667969-6.085938-.601563-7.746094-3.179687-7.964844-11.503907-22.136719-16.980469-35.765625-13.824219-13.625 3.152343-23.949219 14.304687-26.046875 28.132812s4.453125 27.539063 16.53125 34.59375c3.511718 2.234375 5.007812 6.605469 3.601562 10.523438l-21.058594 63.042969c-4.140624.378906-8.253906 1.019531-12.3125 1.910156-30.269531-23.996094-67.839843-36.910156-106.464843-36.597656-72.535157-.011719-138.132813 43.105468-166.894531 109.695312-5.925782-4.707031-13.269532-7.277344-20.835938-7.296875-15.5625.019531-29.148438 10.539063-33.058594 25.601563-9.238281-.292969-18.199218 3.175781-24.835937 9.609374-6.632813 6.433594-10.378907 15.28125-10.375 24.523438-.007813 5.664062 1.414062 11.242188 4.132812 16.214844-6.011719 4.914062-10.171875 11.722656-11.8125 19.308594-12.113281 3.703124-19.628906 15.785156-17.59375 28.289062 9.609375 60.578125 59.800781 83.949219 88.867188 92.492188zm405.628906-95.164063c-7.730469 48.726563-46.078125 69.742187-76.796875 78.789063-17.53125 5.355468-33.972656 13.78125-48.554688 24.882812-19.289062 14.386719-54.589843 31.453125-113.46875 31.453125-58.882812 0-94.183593-17.066406-113.433593-31.453125-14.585938-11.101562-31.027344-19.527344-48.554688-24.882812-30.789062-9.046876-69.121093-30.0625-76.800781-78.796876-.398438-2.449218.304688-4.945312 1.917969-6.828124.121093.324218.300781.617187.429687.941406.246094.621094.535156 1.210937.851563 1.816406.589843 1.25 1.25 2.460938 1.980469 3.636719.359374.570312.714843 1.140625 1.109374 1.703125.898438 1.253906 1.878907 2.445312 2.933594 3.570312.316406.324219.582032.691406.855469 1.003906 1.40625 1.375 2.929687 2.628907 4.546875 3.746094.445312.308594.929688.554688 1.382812.855469 1.25.78125 2.546876 1.484375 3.882813 2.105469.625.28125 1.253906.539062 1.902344.785156 1.335937.511719 2.707031.9375 4.097656 1.273438.621094.152343 1.226563.332031 1.859375.453124 2.058594.390626 4.144531.59375 6.238281.605469 5.667969-.011719 11.242188-1.441406 16.214844-4.164062 11.757813 14.628906 33.152344 16.957031 47.785156 5.203125 10.242188 8.203125 24.28125 9.804687 36.113281 4.125 11.828126-5.683594 19.351563-17.640625 19.351563-30.765625h315.589844c2.546875 0 4.964843 1.117187 6.613281 3.054687 1.640625 1.894532 2.355469 4.414063 1.953125 6.886719zm-25.597656-27.007813h-170.285157c.042969-1.1875.0625-2.398437.121094-3.566406.144532-3.003906.359375-5.972656.613282-8.847656.230468-2.648438.460937-5.292969.777343-7.859375.28125-2.304687.632813-4.542969.980469-6.828125.480469-3.054688.941406-6.109375 1.527344-9.046875.230468-1.160156.523437-2.25.769531-3.410156 12.3125-55.84375 45.535156-89.960938 79.554687-101.179688 8.492188-2.816406 17.371094-4.277343 26.316407-4.328125 1.8125.015625 3.621093.15625 5.410156.417969.753906.101563 1.476563.257813 2.203125.402344.945312.195312 1.867188.433593 2.78125.691406.914062.253906 1.707031.503906 2.558594.851563.855468.351562 1.597656.699218 2.390625 1.066406 1.328125.617187 2.617187 1.3125 3.859375 2.082031.851562.519531 1.703125 1.050781 2.480468 1.65625 31.574219 22.972656 37.351563 96.410156 37.984376 137.898437zm-31.609375-219.210937c3.925781-11.546875-.683594-24.269531-11.09375-30.621094-6.105469-3.585937-9.363282-10.570312-8.183594-17.554687 1.175781-6.984375 6.546875-12.511719 13.492188-13.898438 6.628906-1.328125 13.417968 1.410156 17.261718 6.972656 5.570313 8.269532 15.628906 12.289063 25.363282 10.136719 2.34375-.488281 4.761718-.488281 7.109374 0 6.703126 1.492188 11.875 6.839844 13.140626 13.59375.921874 5.015625-.453126 10.179688-3.746094 14.074219-3.328125 3.914062-8.222656 6.152344-13.363282 6.109375-11.644531-.273437-22.152343 6.949219-26.070312 17.917969l-18.585938 55.585937c-1.160156-.5625-2.390624-.945312-3.582031-1.425781-.972656-.382812-1.921875-.851562-2.910156-1.140625-2.039063-.640625-4.113281-1.15625-6.214844-1.546875-.597656-.117188-1.167969-.316406-1.78125-.417969h-.121093zm-156.015625 40.011719c30.828125-.265625 61.015625 8.78125 86.613281 25.957031-.699219.316406-1.390625.710937-2.089844 1.035156-1.773437.851563-3.53125 1.703125-5.289062 2.609375-.785156.417969-1.5625.851563-2.339844 1.304688-29.457031 16.316406-54.910156 47.003906-67.8125 90.992187-.292969.964844-.574219 1.945313-.855469 2.925781-.902343 3.285157-1.773437 6.605469-2.558593 10.035157-.519532 2.304687-.957032 4.695312-1.410157 7.066406-.5 2.636719-1.066406 5.207031-1.472656 7.917969-.804687 5.179687-1.394531 10.546875-1.863281 16.027344-.144532 1.808593-.21875 3.675781-.332032 5.519531-.160156 2.5625-.390624 5.121093-.476562 7.808593h-115.617188c-.078124-.128906-.191406-.222656-.265624-.351562-1.222657-2.039062-2.652344-3.953125-4.265626-5.699219-.386718-.417969-.855468-.75-1.230468-1.152343-1.324219-1.300782-2.75-2.488282-4.265625-3.558594-.605469-.425782-1.222657-.808594-1.851563-1.203125-1.527344-.917969-3.117187-1.722657-4.761718-2.40625-.617188-.246094-1.195313-.535157-1.820313-.75-2.308594-.828125-4.707031-1.398438-7.140625-1.707031-4.511719-7.953126-12.023438-13.769532-20.855469-16.144532 0-.460937.085938-.9375.109375-1.398437.136719-2.21875.308594-4.4375.554688-6.648438l.085937-.851562c.085938-.753907.230469-1.496094.324219-2.246094.503906-3.882813 1.179688-7.679687 1.996094-11.496094.144531-.664062.257812-1.339843.410156-2.003906 16.019531-69.246094 82.75-121.582031 158.480469-121.582031zm-236.269531 171.792968c2.785156-1.027343 4.835937-3.425781 5.417968-6.335937.582032-2.910156-.390625-5.914063-2.566406-7.933594-3.511719-3.191406-5.511719-7.714843-5.515625-12.457031 0-9.425781 7.644531-17.066406 17.070313-17.066406 1.984374.023437 3.945312.398437 5.800781 1.109375 2.722656.984375 5.761719.519531 8.066406-1.234375s3.5625-4.554688 3.34375-7.445313c-.019531-.179687-.144531-.785156-.144531-.964843 0-9.425782 7.640625-17.066407 17.066406-17.066407 5.929688.011719 11.410156 3.152344 14.417969 8.261719-.550781 2.003906-.980469 4.035156-1.457031 6.058594-.230469.980468-.496094 1.945312-.707032 2.925781-.992187 4.550781-1.785156 9.136719-2.382812 13.757813-.042969.304687-.117188.597656-.152344.902343l-.382812 3.542969c-.105469 1.015625-.148438 1.96875-.222657 2.960938-.09375 1.117187-.1875 2.234374-.257812 3.351562-.195313 3.191406-.324219 6.332031-.324219 9.4375 0 4.714844 3.820312 8.535156 8.535156 8.535156 7.238282.042969 13.660156 4.652344 16.023438 11.496094 1.242187 3.640625 4.78125 5.984375 8.621094 5.707031l1.066406-.136719c1.570312.023438 3.128906.269532 4.632812.734376.308594.085937.613282.1875.914063.289062 1.464843.5 2.851562 1.199219 4.128906 2.074219.078125.050781.136719.121093.214844.171875 1.179687.878906 2.242187 1.90625 3.164062 3.054687.195313.238281.402344.46875.589844.714844.898437 1.238281 1.628906 2.589844 2.175781 4.019531.242188.652344.445313 1.316406.605469 1.988282.066406.257812.152344.511718.203125.777343.214844 1.066407.324219 2.152344.324219 3.242188-.015625 7.523437-4.957031 14.144531-12.160157 16.304687-7.207031 2.160156-14.976562-.648437-19.128906-6.917968-1.582031-2.378907-4.25-3.8125-7.109375-3.8125s-5.527343 1.433593-7.109375 3.8125c-3.527344 5.371093-9.785156 8.292968-16.167968 7.542968-6.382813-.746094-11.796876-5.035156-13.988282-11.074218-1.023437-2.789063-3.421875-4.84375-6.332031-5.425782-2.910156-.582031-5.917969.390625-7.933594 2.566406-5.679687 6.203126-15.050781 7.292969-22 2.558594-.207031-.136718-.367187-.316406-.5625-.460937-.691406-.492188-1.347656-1.035157-1.964843-1.621094-.53125-.5625-1.027344-1.160156-1.476563-1.792969-.195313-.246094-.433594-.46875-.613281-.730468-.457032-.71875-.867188-1.46875-1.21875-2.246094-.105469-.230469-.257813-.425782-.351563-.648438-.355469-.84375-.640625-1.71875-.851562-2.609375-.050781-.207031-.148438-.386719-.1875-.589843-.101563-.644532-.167969-1.292969-.199219-1.945313 0-.445313-.109375-.929687-.109375-1.441406.035156-7.132813 4.5-13.488281 11.195313-15.941407zm0 0"/><path d="m247.472656 59.753906c0 4.710938 3.820313 8.535156 8.535156 8.535156 4.710938 0 8.53125-3.824218 8.53125-8.535156 0-.648437 0-.734375 1.769532-2.5 4.289062-3.625 6.765625-8.953125 6.765625-14.570312 0-5.617188-2.476563-10.949219-6.765625-14.570313-1.769532-1.777343-1.769532-1.859375-1.769532-2.492187 0-.632813 0-.726563 1.769532-2.484375 4.261718-3.648438 6.730468-8.96875 6.765625-14.582031 0-4.714844-3.820313-8.5351568-8.535157-8.5351568-4.710937 0-8.53125 3.8203128-8.53125 8.5351568 0 .640624 0 .722656-1.765624 2.492187-4.265626 3.644531-6.734376 8.964844-6.769532 14.574219.039063 5.609375 2.507813 10.925781 6.769532 14.574218 1.765624 1.75 1.765624 1.835938 1.765624 2.492188s0 .734375-1.765624 2.5c-4.257813 3.648438-6.726563 8.960938-6.769532 14.566406zm0 0"/><path d="m196.273438 102.421875c0 4.710937 3.820312 8.53125 8.535156 8.53125 4.710937 0 8.53125-3.820313 8.53125-8.53125 0-.648437 0-.734375 1.765625-2.5 4.292969-3.628906 6.765625-8.960937 6.765625-14.578125s-2.472656-10.949219-6.765625-14.574219c-1.765625-1.757812-1.765625-1.84375-1.765625-2.480469 0-.640624 0-.726562 1.765625-2.484374 4.265625-3.652344 6.734375-8.972657 6.769531-14.585938 0-4.710938-3.820312-8.53125-8.535156-8.53125-4.710938 0-8.53125 3.820312-8.53125 8.53125 0 .640625 0 .726562-1.769532 2.484375-4.289062 3.625-6.765624 8.957031-6.765624 14.570313 0 5.617187 2.476562 10.949218 6.765624 14.570312 1.769532 1.777344 1.769532 1.863281 1.769532 2.511719 0 .648437 0 .730469-1.769532 2.5-4.253906 3.644531-6.722656 8.960937-6.765624 14.566406zm0 0"/><path d="m298.671875 102.421875c0 4.710937 3.820313 8.53125 8.535156 8.53125 4.710938 0 8.535157-3.820313 8.535157-8.53125 0-.648437 0-.734375 1.765624-2.5 4.289063-3.628906 6.765626-8.960937 6.765626-14.578125s-2.476563-10.949219-6.765626-14.574219c-1.765624-1.757812-1.765624-1.84375-1.765624-2.480469 0-.640624 0-.726562 1.765624-2.484374 4.261719-3.652344 6.730469-8.972657 6.765626-14.585938 0-4.710938-3.820313-8.53125-8.53125-8.53125-4.714844 0-8.535157 3.820312-8.535157 8.53125 0 .640625 0 .726562-1.765625 2.484375-4.292968 3.625-6.765625 8.957031-6.765625 14.570313 0 5.617187 2.472657 10.949218 6.765625 14.570312 1.765625 1.777344 1.765625 1.863281 1.765625 2.511719 0 .648437 0 .730469-1.765625 2.5-4.257812 3.644531-6.726562 8.960937-6.769531 14.566406zm0 0"/></svg>