<svg id="Layer_35" enable-background="new 0 0 64 64" height="512" viewBox="0 0 64 64" width="512" xmlns="http://www.w3.org/2000/svg"><path d="m18 34.979c0-1.643 1.346-2.979 3-2.979v-2c-2.757 0-5 2.233-5 4.979z"/><path d="m24 38v2c.551 0 1 .448 1 1h2c0-1.654-1.346-3-3-3z"/><path d="m20 56v2c2.757 0 5-2.243 5-5h-2c0 1.654-1.346 3-3 3z"/><path d="m38 31c0 1.654-1.346 3-3 3v2c2.757 0 5-2.243 5-5z"/><path d="m7 56h-2c0 1.654 1.346 3 3 3v-2c-.551 0-1-.448-1-1z"/><path d="m13 43v-2c-2.206 0-4 1.794-4 4h2c0-1.103.897-2 2-2z"/><path d="m57.148 13.515c.252-.338.487-.664.684-.96 2.168-3.252 2.168-6.444 2.168-8.555 0-2.214-2.693-3-5-3l-1.102.001.107 1.097c.004.039.366 3.926-.899 6.455-.367.733-.733 1.318-1.16 1.879-.847-.846-1.888-1.576-3.064-2.204-.736-2.825-5.331-7.228-14.882-7.228-8.208 0-14.299 3.998-14.555 4.168l-1.205.804 1.179.842c.296.211 7.367 5.186 16.581 5.186 7.399 0 10.927-1.344 12.096-1.916 1.015.558 1.874 1.177 2.534 1.856-.244.255-.516.53-.808.823-1.179-.49-2.469-.763-3.822-.763-4.006 0-7.46 2.373-9.054 5.783-1.515-2.842-4.507-4.783-7.946-4.783-4.962 0-9 3.973-9 8.855 0 1.458.374 2.877 1.061 4.148-.02.001-.04-.003-.061-.003-4.962 0-9 4.027-9 8.979 0 .702.09 1.389.25 2.06-4.06.379-7.25 3.803-7.25 7.961 0 1.564.408 3.021 1.155 4.255-2.966.812-5.155 3.525-5.155 6.745 0 3.859 3.14 7 7 7 2.67 0 4.901-1.18 6.182-3.146 1.609 1.375 3.648 2.146 5.818 2.146 4.83 0 8.773-3.828 8.98-8.609 1.073.294 2.735.609 5.02.609 4.845 0 8.797-3.818 8.982-8.576.957.284 2.338.576 4.018.576 4.962 0 9-4.037 9-9 0-2.888-1.423-5.582-3.707-7.254.566-.46 1.079-.973 1.526-1.538 2.366 5.012 6.472 7.533 6.666 7.649l.926.556.483-.966c.045-.091 1.106-2.259 1.106-6.447 0-3.94-.018-11.964-5.852-15.485zm-21.148-3.515c-6.295 0-11.639-2.581-14.049-3.964 2.163-1.122 6.644-3.036 12.049-3.036 6.384 0 10.024 2.11 11.747 3.884-3.932-1.337-8.622-1.884-12.747-1.884v2c4.796 0 9.158.699 12.509 1.919-1.737.507-4.754 1.081-9.509 1.081zm18.895-.553c1.057-2.113 1.186-4.832 1.16-6.363.984.146 1.945.478 1.945.916 0 1.982 0 4.697-1.832 7.445-.722 1.083-2 2.641-2.9 3.707-.489-.519-1.029-.99-1.618-1.395 1.433-1.459 2.354-2.529 3.245-4.31zm-8.895 4.553c4.411 0 8 3.589 8 8 0 2.698-1.388 5.207-3.633 6.676-2.233-.901-4.778-.866-6.976.094-.943-2.442-2.918-4.367-5.391-5.245v-1.525c0-4.411 3.589-8 8-8zm-11 25c-3.86 0-7-3.141-7-7s3.14-7 7-7 7 3.141 7 7-3.14 7-7 7zm-11 7c-2.757 0-5-2.243-5-5s2.243-5 5-5 5 2.243 5 5-2.243 5-5 5zm5-31c3.86 0 7 3.141 7 7v1.059c-.329-.037-.662-.059-1-.059-3.657 0-6.806 2.196-8.213 5.337-.941-.87-1.944-1.508-2.966-1.877l-.113-.124c-1.102-1.241-1.708-2.833-1.708-4.481 0-3.78 3.14-6.855 7-6.855zm-8 13c.598 0 1.159.068 1.713.208 1.444.368 2.638 1.435 3.419 2.315-.08.481-.132.973-.132 1.477 0 .836.123 1.642.337 2.41-.732-.261-1.516-.41-2.337-.41-2.912 0-5.412 1.788-6.465 4.322-.916-.617-1.988-1.003-3.182-1.183-.231-.694-.353-1.417-.353-2.16 0-3.848 3.14-6.979 7-6.979zm-8 11c.166 0 .332.008.521.027 1.435.114 2.603.612 3.506 1.447-.013.174-.027.349-.027.526 0 1.18.296 2.292.815 3.268-2.92.722-5.28 2.848-6.293 5.69-.916-.537-1.949-.855-3.031-.926-.951-1.052-1.491-2.46-1.491-4.032 0-3.309 2.691-6 6-6zm-5 22c-2.757 0-5-2.243-5-5 0-2.736 2.21-4.967 4.951-5l.146.01c1.093.014 2.117.399 2.954 1.06-.031.294-.051.598-.051.93 0 1.943.615 3.783 1.769 5.34-.851 1.676-2.581 2.66-4.769 2.66zm12-1c-2.174 0-4.186-.985-5.521-2.704-.968-1.242-1.479-2.728-1.479-4.296 0-.342.02-.646.06-.93l.017-.125c.011-.067.021-.135.018-.135.537-3.091 3.015-5.385 6.089-5.743 1.257 1.195 2.95 1.933 4.816 1.933.196 0 .388-.014.58-.029 1.558 1.401 2.42 3.173 2.42 5.029 0 3.859-3.14 7-7 7zm14-8c-2.755 0-4.497-.501-5.198-.753-.308-1.389-.986-2.694-1.984-3.844 2.459-1.087 4.182-3.546 4.182-6.403 0-.336-.032-.664-.078-.987 1.226.626 2.609.987 4.078.987 1.345 0 2.618-.305 3.766-.837.985.955 1.736 2.12 2.024 3.225.142.549.21 1.102.21 1.69 0 3.818-3.14 6.922-7 6.922zm20-15c0 3.859-3.14 7-7 7-2.017 0-3.551-.494-4.205-.748-.026-.121-.039-.246-.07-.365-.345-1.325-1.127-2.662-2.195-3.802 2.108-1.649 3.47-4.208 3.47-7.085 0-.428-.04-.846-.098-1.258 1.908-.946 4.211-.981 6.145-.041 2.438 1.174 3.953 3.587 3.953 6.299zm6.49-3.596c-1.439-1.141-4.022-3.607-5.384-7.318.572-1.268.894-2.654.894-4.086 0-.468-.044-.926-.106-1.377.412 1.279.774 2.816 1.126 4.574l1.961-.393c-.899-4.496-1.827-7.528-3.599-9.059.171-.206.348-.422.526-.642 5.078 2.867 5.092 10.011 5.092 13.897 0 2.012-.268 3.483-.51 4.404z"/><path d="m50 22h2c0-3.532-2.467-6-6-6v2c2.43 0 4 1.57 4 4z"/><path d="m29 19v-2c-2.57 0-5 2.43-5 5h2c0-1.458 1.542-3 3-3z"/><path d="m47 32v2c1.458 0 3 1.542 3 3h2c0-2.57-2.43-5-5-5z"/><path d="m33 48v2c3.533 0 6-2.468 6-6h-2c0 2.43-1.57 4-4 4z"/></svg>