<?xml version="1.0" encoding="iso-8859-1"?>
<!-- Generator: Adobe Illustrator 19.0.0, SVG Export Plug-In . SVG Version: 6.00 Build 0)  -->
<svg version="1.1" id="Capa_1" xmlns="http://www.w3.org/2000/svg" xmlns:xlink="http://www.w3.org/1999/xlink" x="0px" y="0px"
	 viewBox="0 0 512.014 512.014" style="enable-background:new 0 0 512.014 512.014;" xml:space="preserve">
<g>
	<g>
		<g>
			<rect x="362.078" y="291.064" transform="matrix(-0.7071 -0.7071 0.7071 -0.7071 428.2924 791.5336)" width="32" height="32"/>
			<path d="M310.4,348.939l18.864,25.856c9.289-6.775,18.035-14.265,26.16-22.4l-22.768-22.48
				C325.744,336.826,318.303,343.186,310.4,348.939z"/>
			<path d="M490.144,112.075l-0.016,0.048c-29.161-29.16-76.439-29.16-105.6,0L279.76,216.875
				c-60.56,60.624-96.736,81.84-263.76,81.84H0v49.184l4.688,4.688c47.076,45.188,110.048,70.029,175.296,69.152
				c41.769,0.183,82.968-9.695,120.112-28.8l-14.832-28.368c-32.562,16.726-68.674,25.359-105.28,25.168
				C125.469,390.505,72.654,370.77,32,334.443v-3.792c156.56-1.312,202-22.752,270.4-91.2l83.088-83.072l60.352,60.352l-45.12,45.12
				l22.624,22.624l66.8-66.8C519.304,188.514,519.304,141.236,490.144,112.075z M468.352,194.059l-60.16-60.144
				c16.957-15.248,42.79-14.885,59.312,0.832C483.829,151.014,484.205,177.331,468.352,194.059z"/>
		</g>
	</g>
</g>
<g>
</g>
<g>
</g>
<g>
</g>
<g>
</g>
<g>
</g>
<g>
</g>
<g>
</g>
<g>
</g>
<g>
</g>
<g>
</g>
<g>
</g>
<g>
</g>
<g>
</g>
<g>
</g>
<g>
</g>
</svg>
