<svg height="512pt" viewBox="-35 0 512 512.00094" width="512pt" xmlns="http://www.w3.org/2000/svg"><path d="m442.589844 290.699219c0-66.847657-30.410156-129.949219-82.011719-171.832031 23.230469-12.253907 42.351563-32.144532 53.605469-57.660157l23.523437-53.363281-57.898437-6.957031c-52.71875-6.375-102.425782 22.03125-123.8125 70.570312l-.390625.875c-11.441407-1.796875-22.941407-2.917969-34.3125-2.917969-122.015625 0-221.292969 99.273438-221.292969 221.292969s99.273438 221.292969 221.289062 221.292969c25.308594 0 49.617188-4.324219 72.289063-12.183594 19.933594-4.535156 36.878906-13.484375 51.003906-25.433594 59.070313-39.789062 98.007813-107.269531 98.007813-183.683593zm-18.0625 0c0 42.125-12.890625 81.300781-34.917969 113.777343 5.824219-17.863281 9.066406-36.5625 9.644531-54.714843 2.023438-63.480469-27.277344-136.082031-97.277344-155.175781-.558593-.144532-1.101562-.0625-1.660156-.109376-4.851562-1.808593-23.441406-7.882812-53.390625-8.886718l7.75-58.113282 35.695313 4.28125c4.480468.542969 8.996094.785157 13.511718.8125.363282 0 .722657.0625 1.085938.0625 12.617188 0 24.910156-2.03125 36.542969-5.761718 52.0625 38.296875 83.015625 99.175781 83.015625 163.828125zm-189.15625-155.175781-4.136719 31.019531-4.136719-31.019531zm142.285156-116.6875 33.683594 4.046874-13.695313 31.042969c-10.917969 24.777344-30.582031 43.292969-54.21875 53.003907l-3.675781 1.351562c-11.039062 4.066406-22.761719 6.125-34.484375 6.226562-.527344 0-1.050781.007813-1.574219 0-3.738281-.027343-7.476562-.21875-11.179687-.660156l-14.378907-1.726562 78.976563-50.265625c4.207031-2.671875 5.445313-8.261719 2.773437-12.472657-2.675781-4.207031-8.257812-5.445312-12.476562-2.773437l-84.40625 53.71875 9.511719-21.578125c18.175781-41.207031 60.410156-65.289062 105.144531-59.914062zm-359.585938 271.863281c0-112.0625 91.164063-203.226563 203.230469-203.226563 8.878907 0 17.871094.605469 26.832031 1.796875l-12.417968 28.191407h-29.246094l8.671875 65.058593c-18.582031-4.410156-34.089844-15.445312-44.023437-43.832031-1.644532-4.707031-6.773438-7.183594-11.507813-5.539062-4.707031 1.652343-7.1875 6.800781-5.539063 11.507812 18.542969 52.984375 55.992188 58.167969 89.628907 58.882812 32.308593.675782 50.488281 7.9375 50.90625 8.109376 1.136719.480468 2.3125.707031 3.476562.707031.027344 0 .054688-.011719.082031-.011719 59.804688 16.917969 84.820313 80.777344 83.042969 136.867188-1.292969 40.59375-16.675781 84.226562-47.636719 110.808593-14.027343 9.332031-29.285156 16.945313-45.460937 22.589844-.242187.054687-.460937.136719-.703125.191406-.226562.042969-.398438.199219-.625.261719-20.558594 7.019531-42.558594 10.882812-65.464844 10.882812-112.082031-.019531-203.246094-91.179687-203.246094-203.246093zm0 0"/><path d="m71.039062 243.804688c1.40625-4.789063-1.339843-9.800782-6.125-11.207032-4.761718-1.417968-9.800781 1.324219-11.210937 6.121094-10.332031 35.15625-9.246094 73.785156 3.027344 108.785156 1.300781 3.722656 4.796875 6.042969 8.515625 6.042969.996094 0 2.007812-.167969 2.992187-.511719 4.707031-1.65625 7.179688-6.804687 5.527344-11.507812-11.027344-31.460938-12.003906-66.164063-2.726563-97.722656zm0 0"/><path d="m93.71875 169.277344c-9.402344 9.855468-17.597656 20.847656-24.363281 32.679687-2.472657 4.328125-.972657 9.847657 3.351562 12.320313 1.417969.8125 2.953125 1.195312 4.480469 1.195312 3.136719 0 6.179688-1.636718 7.851562-4.542968 6.042969-10.5625 13.367188-20.378907 21.757813-29.183594 3.441406-3.613282 3.304687-9.332032-.308594-12.769532-3.601562-3.4375-9.328125-3.3125-12.769531.300782zm0 0"/></svg>