<svg id="Layer_35" enable-background="new 0 0 64 64" height="512" viewBox="0 0 64 64" width="512" xmlns="http://www.w3.org/2000/svg"><path d="m61 38.913c0-3.618-3.486-6.129-5.684-6.862l-.468-.156-5.848 3.962v-4.857c0-4.706-2.341-8.867-5.911-11.406 1.114-6.286 5.573-10.841 5.619-10.887l1.699-1.707h-2.407c-2.547 0-4.357.746-5.813 1.558 1.616-3.571 3.539-5.869 3.573-5.908l1.409-1.65h-2.169c-4.26 0-7.371 1.57-9.575 3.948-.877-1.774-2.475-3.413-2.718-3.655l-.815-.815-.692.922c-.389.518-1.899 2.596-2.698 4.546-1.708-1.166-3.593-1.946-5.502-1.946h-1.517l.598 1.394c.016.037.892 2.107 1.68 4.909-1.657-.72-3.638-1.303-6.761-1.303h-2.135l1.367 1.64c.044.052 3.971 4.796 5.418 8.467-3.983 2.471-6.65 6.871-6.65 11.893v18c0 7.72 6.28 14 14 14h10v-.018c2.049-.09 3.922-.827 5.46-2.166 2.433.288 4.852-.297 6.901-1.663 2.541-1.703 3.667-3.98 4.166-5.741 1.952-.976 3.421-2.555 4.265-4.595.871-2.105.444-4.152.12-5.658.722-1.353 1.088-2.78 1.088-4.246zm-6 .087c0 .807-.394 1.512-.759 2h-4.241v2h3.438l.073.09c.043.052 1.038 1.31.16 3.434-.706 1.706-2.436 1.912-3.064 1.931l-3.007-2.255-1.2 1.6 2.954 2.216c.059.826-.007 2.878-1.909 4.153-1.918 1.278-3.843.546-4.579.174l-.896-3.585-1.94.485.92 3.679c-.268.588-1.122 2.078-2.95 2.078-1.737 0-2.606-.798-2.938-1.209l.919-4.594-1.961-.393-.873 4.364c-.805.137-2.347.218-3.44-.875-.492-.493-1.03-1.34-1.408-1.997l24.024-16.274c.842.089 2.677.559 2.677 2.978zm-36-13c.552 0 1-.448 1-1 0-.468-.328-.843-.763-.952.468-.656 1.001-1.26 1.588-1.808l2.76 2.76-5.585 5.586-.921-.921c.158-1.424.573-2.768 1.187-3.998.183.202.441.333.734.333zm10-7h.586l-4.586 4.586-2.598-2.598c1.895-1.253 4.161-1.988 6.598-1.988zm12.598 1.988-2.598 2.598-4.586-4.586h.586c2.437 0 4.703.735 6.598 1.988zm3.165 3.06c-.435.109-.763.484-.763.952 0 .552.448 1 1 1 .293 0 .551-.131.734-.333.614 1.23 1.029 2.574 1.187 3.998l-.921.921-5.586-5.586 2.76-2.76c.588.548 1.12 1.152 1.589 1.808zm-11.102 22.199-.247-.247 5.586-5.586 1.321 1.321zm-1.661-1.661-5.586-5.586 5.586-5.586 5.586 5.586zm-1.414-12.586-5.586 5.586-5.586-5.586 5.586-5.586zm-4.172-7 5.586-5.586 5.586 5.586-5.586 5.586zm7 7 5.586-5.586 5.586 5.586-5.586 5.586zm-16.414 11.586v-4.586-4.586l1-1 5.586 5.586-5.586 5.586zm8-3.172 5.586 5.586-5.586 5.586-5.586-5.586zm17.007.179-1.593-1.593 5.586-5.586 1 1v2.797zm-.039-29.578c1.08-.667 2.184-1.349 3.636-1.724-1.464 1.945-3.466 5.195-4.337 9.208-.411-.207-.832-.393-1.265-.559.007-2.284.429-4.434 1.035-6.369.308-.176.615-.36.931-.556zm.928-7.861c-1.775 2.622-4.682 7.86-4.877 14.183-.974-.215-1.982-.337-3.019-.337h-1.971c.173-3.538 1.443-12.557 9.867-13.846zm-10.796.438c.883 1.048 1.755 2.356 1.876 3.214-.58.897-1.063 1.863-1.464 2.873-.7-.848-1.494-1.681-2.358-2.44.328-1.02 1.148-2.457 1.946-3.647zm-.345 8.374c-.432 1.652-.659 3.361-.725 5.034h-2.03c-.693 0-1.368.067-2.034.165-.173-4.206-1.571-8.636-2.418-10.948 2.942.802 5.683 3.658 7.207 5.749zm-12.611-.851c2.312.266 3.761.957 5.237 1.695.332 1.556.57 3.201.606 4.783-.538.161-1.061.353-1.569.575-1.04-2.513-2.957-5.297-4.274-7.053zm-1.048 42.866c.505-.051.904-.463.904-.981 0-.552-.448-1-1-1-.21 0-.395.08-.556.191-.281-1.018-.444-2.085-.444-3.191v-.586l1-1 5.586 5.586-3.741 3.741c-.703-.831-1.29-1.76-1.749-2.76zm3.163 4.174 2.53-2.53c.544.864 1.346 2.006 2.252 2.911 1.254 1.253 2.796 2.081 4.528 2.464h-1.569c-2.949 0-5.649-1.074-7.741-2.845zm36.688-14.626c.3 1.392.64 2.97-.002 4.523-.892 2.155-2.486 3.222-3.667 3.737l-.459.2-.114.488c-.342 1.46-1.219 3.515-3.454 5.013-1.764 1.176-3.87 1.628-5.956 1.283l-.496-.082-.362.35c-1.344 1.3-2.979 1.959-4.859 1.959-2.34 0-3.943-.843-4.875-1.55l-.277-.21-.597.011c-2.121 0-3.979-.736-5.372-2.128-.875-.875-1.659-2.038-2.13-2.812l1.314-.89c.415.712 1.021 1.655 1.653 2.287 1.77 1.77 4.11 1.638 5.286 1.421.645.756 2.006 1.871 4.42 1.871 2.444 0 3.803-1.561 4.455-2.651 1.303.536 3.686 1.092 6.103-.518 2.409-1.615 2.807-4.03 2.809-5.439 1.257-.185 3.218-.844 4.153-3.103.888-2.147.448-3.788.011-4.698.614-.715 1.469-1.995 1.469-3.591 0-2.415-1.22-3.741-2.563-4.411l.693-.469c1.702.738 3.87 2.587 3.87 4.793 0 1.232-.339 2.438-1.007 3.583l-.195.333z"/><circle cx="32" cy="25" r="1"/><circle cx="32" cy="39" r="1"/><circle cx="39" cy="32" r="1"/><circle cx="25" cy="32" r="1"/><circle cx="25" cy="46" r="1"/><circle cx="18" cy="39" r="1"/></svg>