<svg id="Layer_1" height="512" viewBox="0 0 128 128" width="512" xmlns="http://www.w3.org/2000/svg" data-name="Layer 1"><path d="m121.25 27.27h-114.5a6.758 6.758 0 0 0 -6.75 6.75v59.96a6.758 6.758 0 0 0 6.75 6.75h114.5a6.758 6.758 0 0 0 6.75-6.75v-59.96a6.758 6.758 0 0 0 -6.75-6.75zm3.25 66.71a3.254 3.254 0 0 1 -3.25 3.25h-114.5a3.254 3.254 0 0 1 -3.25-3.25v-59.96a3.254 3.254 0 0 1 3.25-3.25h114.5a3.254 3.254 0 0 1 3.25 3.25z"/><path d="m36.983 37.915a26.1 26.1 0 1 0 26.1 26.1 26.133 26.133 0 0 0 -26.1-26.1zm-6.13 39.844a1.749 1.749 0 0 0 .663-1.042l.361-1.725a6.163 6.163 0 0 0 -1.629-5.568 9.4 9.4 0 1 1 13.464 0 6.152 6.152 0 0 0 -1.625 5.564l.361 1.725a1.749 1.749 0 0 0 .663 1.042l6.589 4.945a22.761 22.761 0 0 1 -25.433 0zm21.654 2.667-6.768-5.072-.226-1.078a2.657 2.657 0 0 1 .705-2.4 12.9 12.9 0 1 0 -18.478-.007 2.667 2.667 0 0 1 .711 2.41l-.226 1.078-6.768 5.072a22.6 22.6 0 1 1 31.049 0z"/><path d="m115.25 37.915h-40.25a1.75 1.75 0 0 0 0 3.5h40.25a1.75 1.75 0 0 0 0-3.5z"/><path d="m115.25 50.092h-40.25a1.75 1.75 0 0 0 0 3.5h40.25a1.75 1.75 0 0 0 0-3.5z"/><path d="m115.25 62.27h-40.25a1.75 1.75 0 0 0 0 3.5h40.25a1.75 1.75 0 0 0 0-3.5z"/><path d="m115.25 74.446h-40.25a1.75 1.75 0 0 0 0 3.5h40.25a1.75 1.75 0 0 0 0-3.5z"/><path d="m95.125 86.623h-20.125a1.75 1.75 0 0 0 0 3.5h20.125a1.75 1.75 0 0 0 0-3.5z"/></svg>